<?xml version="1.0" encoding="UTF-8" standalone="no"?>
<svg
   xmlns:dc="http://purl.org/dc/elements/1.1/"
   xmlns:cc="http://creativecommons.org/ns#"
   xmlns:rdf="http://www.w3.org/1999/02/22-rdf-syntax-ns#"
   xmlns:svg="http://www.w3.org/2000/svg"
   xmlns="http://www.w3.org/2000/svg"
   xmlns:sodipodi="http://sodipodi.sourceforge.net/DTD/sodipodi-0.dtd"
   xmlns:inkscape="http://www.inkscape.org/namespaces/inkscape"
   version="1.1"
   id="svg2"
   xml:space="preserve"
   width="2829.3333"
   height="2829.3333"
   viewBox="0 0 2829.3333 2829.3333"
   sodipodi:docname="1521_U1RVRElPIEtBVCAzMDYtMTA5.eps"><metadata
     id="metadata8"><rdf:RDF><cc:Work
         rdf:about=""><dc:format>image/svg+xml</dc:format><dc:type
           rdf:resource="http://purl.org/dc/dcmitype/StillImage" /></cc:Work></rdf:RDF></metadata><defs
     id="defs6" /><sodipodi:namedview
     pagecolor="#ffffff"
     bordercolor="#666666"
     borderopacity="1"
     objecttolerance="10"
     gridtolerance="10"
     guidetolerance="10"
     inkscape:pageopacity="0"
     inkscape:pageshadow="2"
     inkscape:window-width="640"
     inkscape:window-height="480"
     id="namedview4" /><g
     id="g10"
     inkscape:groupmode="layer"
     inkscape:label="ink_ext_XXXXXX"
     transform="matrix(1.3333333,0,0,-1.3333333,0,2829.3333)"><g
       id="g12"
       transform="scale(0.1)"><path
         d="M 8520.6,9675.4 V 6548.9 c 0,-113.6 -108.85,-205.8 -243.17,-205.8 H 5931.38 c -134.24,0 -243.15,92.2 -243.15,205.8 V 9675.4 H 8520.6"
         style="fill:#881827;fill-opacity:1;fill-rule:nonzero;stroke:none"
         id="path14" /><path
         d="M 8348.28,10381.6 H 6180.49 V 8960.8 h 2167.79 v 1420.8"
         style="fill:#69121c;fill-opacity:1;fill-rule:nonzero;stroke:none"
         id="path16" /><path
         d="m 7598.24,9671.2 c 0,-392.4 318.05,-710.4 710.43,-710.4 392.36,0 710.42,318 710.42,710.4 0,392.4 -318.06,710.4 -710.42,710.4 -392.38,0 -710.43,-318 -710.43,-710.4"
         style="fill:#69121c;fill-opacity:1;fill-rule:nonzero;stroke:none"
         id="path18" /><path
         d="M 12849.4,13279.8 H 8957.17 l -2.06,-4510.9 h 3892.19 c 308.1,0 557.8,211.3 557.8,472 l 2.1,3566.9 c 0,260.7 -249.8,472 -557.8,472"
         style="fill:#981a2c;fill-opacity:1;fill-rule:nonzero;stroke:none"
         id="path20" /><path
         d="m 12445.1,9240.9 c 0,-260.7 -249.6,-472 -557.9,-472 H 8476.04 c -308.02,0 -557.83,211.3 -557.83,472 l 2.05,3566.9 c 0,260.7 249.81,472 557.83,472 h 3411.21 c 308.2,0 557.8,-211.3 557.8,-472 l -2,-3566.9"
         style="fill:#ab283c;fill-opacity:1;fill-rule:nonzero;stroke:none"
         id="path22" /><path
         d="m 18588.4,6100.9 c 0,-24.3 19.6,-43.9 43.9,-43.9 h 526.3 c 24.2,0 43.8,19.6 43.8,43.9 v 383 c 0,24.3 -19.6,43.9 -43.8,43.9 h -526.3 c -24.3,0 -43.9,-19.6 -43.9,-43.9 v -383"
         style="fill:#3a0e14;fill-opacity:1;fill-rule:nonzero;stroke:none"
         id="path24" /><path
         d="m 16682.7,6100.9 c 0,-24.3 19.6,-43.9 43.9,-43.9 h 526.3 c 24.2,0 43.8,19.6 43.8,43.9 v 383 c 0,24.3 -19.6,43.9 -43.8,43.9 h -526.3 c -24.3,0 -43.9,-19.6 -43.9,-43.9 v -383"
         style="fill:#3a0e14;fill-opacity:1;fill-rule:nonzero;stroke:none"
         id="path26" /><path
         d="m 5966.07,6100.9 c 0,-24.3 19.64,-43.9 43.88,-43.9 h 526.28 c 24.22,0 43.88,19.6 43.88,43.9 v 383 c 0,24.3 -19.66,43.9 -43.88,43.9 h -526.28 c -24.24,0 -43.88,-19.6 -43.88,-43.9 v -383"
         style="fill:#3a0e14;fill-opacity:1;fill-rule:nonzero;stroke:none"
         id="path28" /><path
         d="m 8768.53,6100.9 c 0,-24.3 19.63,-43.9 43.87,-43.9 h 526.29 c 24.22,0 43.88,19.6 43.88,43.9 v 383 c 0,24.3 -19.66,43.9 -43.88,43.9 H 8812.4 c -24.24,0 -43.87,-19.6 -43.87,-43.9 v -383"
         style="fill:#3a0e14;fill-opacity:1;fill-rule:nonzero;stroke:none"
         id="path30" /><path
         d="M 12208.5,6343.1 H 6812.13 V 9232.7 H 12208.5 V 6343.1"
         style="fill:#881827;fill-opacity:1;fill-rule:nonzero;stroke:none"
         id="path32" /><path
         d="M 12208.5,6343.1 H 6811.93 V 7568.3 H 12208.5 V 6343.1"
         style="fill:#dd2a4d;fill-opacity:1;fill-rule:nonzero;stroke:none"
         id="path34" /><path
         d="m 6875.78,7698.6 h 5087.72 c 135.2,0 245,81.2 245,181.3 v 1412.4 c 0,67.5 -113.6,144.8 -245,181.3 -2011.76,283.4 -4906.37,0 -4906.37,0 -150.68,-38.5 -196.69,-80.7 -245.07,-181.3 V 7762.5 c 0,0 -6.3,-63.9 63.72,-63.9"
         style="fill:#dd2a4d;fill-opacity:1;fill-rule:nonzero;stroke:none"
         id="path36" /><path
         d="M 6812.06,9276.7 H 12208.5 V 7879.9 c 0,-100.1 -109.8,-181.3 -245,-181.3 H 6875.78 c -70.02,0 -63.72,63.9 -63.72,63.9 v 1514.2"
         style="fill:#ab283c;fill-opacity:1;fill-rule:nonzero;stroke:none"
         id="path38" /><path
         d="m 18017.1,13279.8 h -3892.2 l -2,-4510.9 h 3892.2 c 308,0 557.8,211.3 557.8,472 l 2.1,3566.9 c 0,260.7 -249.8,472 -557.9,472"
         style="fill:#981a2c;fill-opacity:1;fill-rule:nonzero;stroke:none"
         id="path40" /><path
         d="m 17612.8,9240.9 c 0,-260.7 -249.6,-472 -557.8,-472 h -3411.2 c -308,0 -557.8,211.3 -557.8,472 l 2,3566.9 c 0,260.7 249.8,472 557.9,472 H 17057 c 308.3,0 557.9,-211.3 557.9,-472 l -2.1,-3566.9"
         style="fill:#ab283c;fill-opacity:1;fill-rule:nonzero;stroke:none"
         id="path42" /><path
         d="m 17593.1,6343.1 h -5396.4 v 2889.6 h 5396.4 V 6343.1"
         style="fill:#881827;fill-opacity:1;fill-rule:nonzero;stroke:none"
         id="path44" /><path
         d="m 17593.1,6343.1 h -5396.6 v 1225.2 h 5396.6 V 6343.1"
         style="fill:#dd2a4d;fill-opacity:1;fill-rule:nonzero;stroke:none"
         id="path46" /><path
         d="m 12260.4,7698.6 h 5087.7 c 135.2,0 245,81.2 245,181.3 v 1412.4 c 0,67.5 -113.6,144.8 -245,181.3 -2011.7,283.4 -4906.4,0 -4906.4,0 -150.6,-38.5 -196.6,-80.7 -245,-181.3 V 7762.5 c 0,0 -6.3,-63.9 63.7,-63.9"
         style="fill:#dd2a4d;fill-opacity:1;fill-rule:nonzero;stroke:none"
         id="path48" /><path
         d="m 12196.7,9276.7 h 5396.4 V 7879.9 c 0,-100.1 -109.8,-181.3 -245,-181.3 h -5087.7 c -70,0 -63.7,63.9 -63.7,63.9 v 1514.2"
         style="fill:#ab283c;fill-opacity:1;fill-rule:nonzero;stroke:none"
         id="path50" /><path
         d="M 19301.6,9653 V 6548.9 c 0,-113.6 -108.8,-205.8 -243.1,-205.8 h -2346.1 c -134.2,0 -243.1,92.2 -243.1,205.8 V 9653 h 2832.3"
         style="fill:#881827;fill-opacity:1;fill-rule:nonzero;stroke:none"
         id="path52" /><path
         d="M 17593.1,9653 V 6551 c 0,-207.9 -199,-207.9 -199,-207.9 h -681.7 c -134.2,0 -243.1,92.2 -243.1,205.8 V 9653 h 1123.8"
         style="fill:#dd2a4d;fill-opacity:1;fill-rule:nonzero;stroke:none"
         id="path54" /><path
         d="M 19384.4,10381.6 H 17216.6 V 8960.8 h 2167.8 v 1420.8"
         style="fill:#69121c;fill-opacity:1;fill-rule:nonzero;stroke:none"
         id="path56" /><path
         d="m 16467.8,9619.3 c 0,-420.9 341.3,-762.2 762.3,-762.2 421,0 762.3,341.3 762.3,762.2 0,421 -341.3,762.3 -762.3,762.3 -421,0 -762.3,-341.3 -762.3,-762.3"
         style="fill:#dd2a4d;fill-opacity:1;fill-rule:nonzero;stroke:none"
         id="path58" /><path
         d="m 18634.4,9671.2 c 0,-392.4 318,-710.4 710.4,-710.4 392.3,0 710.4,318 710.4,710.4 0,392.4 -318.1,710.4 -710.4,710.4 -392.4,0 -710.4,-318 -710.4,-710.4"
         style="fill:#69121c;fill-opacity:1;fill-rule:nonzero;stroke:none"
         id="path60" /><path
         d="M 6812.13,9675.4 V 6343.1 h -880.75 c -134.24,0 -243.15,92.2 -243.15,205.8 v 3126.5 h 1123.9"
         style="fill:#dd2a4d;fill-opacity:1;fill-rule:nonzero;stroke:none"
         id="path62" /><path
         d="m 5431.69,9619.3 c 0,-420.9 341.29,-762.2 762.28,-762.2 421,0 762.28,341.3 762.28,762.2 0,421 -341.28,762.3 -762.28,762.3 -420.99,0 -762.28,-341.3 -762.28,-762.3"
         style="fill:#dd2a4d;fill-opacity:1;fill-rule:nonzero;stroke:none"
         id="path64" /><path
         d="m 13631.4,14481.3 c 0,-585.1 215.2,-1179.6 46.1,-1758.4 -30.7,-105.1 -123,-256.8 -9.5,-343.1 134.4,-102.2 314,-100.5 474.6,-106.4 156.3,-5.7 338.6,-39.4 473.7,60.8 296.2,219.8 184,682.6 200.2,989.6 20.1,380.8 54.9,763.4 -39.3,1138.9 -64.4,256.4 -208.4,530 -458.4,645.5 -254.5,117.6 -510.3,-11.4 -617.9,-259.2 -49,-112.6 -69.5,-245.1 -69.5,-367.7"
         style="fill:#44150f;fill-opacity:1;fill-rule:nonzero;stroke:none"
         id="path66" /><path
         d="m 11043.1,12809.2 90,127.4 c 773.6,-434.2 957.8,-355.8 957.8,-355.8 194.2,-28.1 284.1,42.4 440.7,132.7 352.8,203.1 711,401.7 1055.2,619.2 354.7,127.7 448.4,-230.9 523.7,-284.4 -423.7,-284.4 -823.9,-484.7 -1363.3,-779.9 -248.6,-136.1 -551.4,-180.5 -784.9,-55.4 0,0 -464.2,217.4 -919.2,596.2"
         style="fill:#f79885;fill-opacity:1;fill-rule:nonzero;stroke:none"
         id="path68" /><path
         d="m 10971.8,13282.2 c -80.9,-37.8 107.5,-208.5 125.2,-252.7 -40.2,41.9 -181,212.5 -233.5,185.5 -29.6,-19.1 116.6,-153.3 138.8,-183.9 -28.6,20.1 -128.5,117.7 -160.1,90.5 -17.5,-24.3 85.5,-113.1 112.1,-145.4 -10.1,3.5 -105.6,86.4 -114,60.9 -9.8,-24.1 47.5,-91.7 78.5,-123.1 140,-141.4 290.7,-302.1 358.9,-183.7 51.1,88.3 76.8,138.6 -3.6,421.5 -13.8,48.7 -75.6,-20 -68.5,-123 -25.7,2.3 -224.2,258 -233.8,253.4"
         style="fill:#f79885;fill-opacity:1;fill-rule:nonzero;stroke:none"
         id="path70" /><path
         d="m 11213.5,12966.1 c 1.2,2.3 2.3,4.7 3.5,7.1 3.6,7.7 -18.8,9.8 -22.1,3 -1.1,-2.4 -2,-4.8 -2.8,-7.3 5.4,1.5 10.7,3 16.1,4.5 -6,1.1 -21.7,2.9 -24.8,-5.4 -2,-5.4 -3.5,-10.7 -4.7,-16.4 -2.1,-9.8 -12.5,-15 -14,-25.9 -5,-35.7 21.4,-75.3 48.9,-96.2 6.1,-4.7 40.5,-3.6 32.3,6.6 -16.9,20.9 -34.7,37.9 -44.5,63.6 -6.3,16.3 -1.6,24.9 5.3,39.2 4,8.3 9.2,21.7 -2,21.9 3.7,0 13.1,1.1 13.1,6.4 0,2.6 -0.1,5 -0.4,7.5 -1.3,8.2 -24,7.2 -22.9,0 0.4,-2.5 0.7,-5 1.1,-7.5 0.9,-6 15.5,-6.1 17.9,-1.1 v 0"
         style="fill:#f57c6e;fill-opacity:1;fill-rule:nonzero;stroke:none"
         id="path72" /><path
         d="m 13965.6,13315.4 c 0,0 312.2,-283.8 -163.3,-666.9 l -990.4,-648 c 0,0 -410.8,394.9 -322,744.2 l 982.5,569.6 c 0,0 232.3,135.1 493.2,1.1"
         style="fill:#e43ea8;fill-opacity:1;fill-rule:nonzero;stroke:none"
         id="path74" /><path
         d="m 9526.77,7056.8 c -4.62,-148 131.16,-430.5 59.91,-579.7 -55.47,-116.1 -278.35,-218 -390.51,-265.7 -51.98,-22.2 -209.64,-45.3 -192.47,-118.6 15.98,-68.2 172.43,-69.6 218.64,-69.2 147.69,1.4 284.81,67.5 421.25,109.9 117.05,36.4 345.96,13.2 413.21,129.5 80.1,138.6 -61.19,163.9 -66.44,301.5 -7.73,202.9 -23.79,425.3 -25.66,599.6 0,0 -246.83,-42.3 -437.93,-107.3"
         style="fill:#f1f1ef;fill-opacity:1;fill-rule:nonzero;stroke:none"
         id="path76" /><path
         d="m 11747.9,13072.4 c 232.5,449.6 1.8,551.9 1.8,551.9 -246.2,156.2 -504,-211.7 -504,-211.7 0,0 -501.3,-883.8 -643.2,-1226 0,0 253.4,-290.4 470,-81.6 l 675.4,967.4"
         style="fill:#f8a18f;fill-opacity:1;fill-rule:nonzero;stroke:none"
         id="path78" /><path
         d="m 9702.65,10885.8 125.78,-126.1 c 0,0 1041.07,575.8 1263.57,1483.9 0,0 -330.4,200.4 -476.5,-33.2 0,0 -369.2,-789.7 -912.85,-1324.6"
         style="fill:#f8a18f;fill-opacity:1;fill-rule:nonzero;stroke:none"
         id="path80" /><path
         d="m 9884.92,10517.8 c -38.26,-76.6 -342.57,-121.6 -400.52,-66.7 -109.58,103.6 -12.22,290.8 75.1,358.8 150.19,116.8 258.67,116.8 336.57,-8.9 39.76,-64.2 30.57,-199.7 -11.15,-283.2"
         style="fill:#f8a18f;fill-opacity:1;fill-rule:nonzero;stroke:none"
         id="path82" /><path
         d="m 8134.29,11043.6 -11.61,-786.3 c 1669.57,-396.9 2794.12,-370.9 2794.12,-370.9 834.4,144.7 550.6,1118.2 550.6,1118.2 -294.7,461.6 -940,222.5 -940,222.5 0,0 -1802.31,-16.7 -2393.11,-183.5"
         style="fill:#20224c;fill-opacity:1;fill-rule:nonzero;stroke:none"
         id="path84" /><path
         d="M 10043.2,6921.6 C 9906.5,6675.4 9501.58,6795 9501.58,6795 c -32.89,749.9 -67.01,2118.8 -99.9,2868.7 0,0 -40.55,248.2 278.94,500.3 838.78,661.9 1896.48,877.6 1896.48,877.6 0,0 817.8,166.9 931.8,-715.3 24,-186.1 -162.7,-470.7 -291.5,-584 -166.1,-146.1 -380,-184.9 -592.7,-211.1 -131.1,-16.2 -261.7,-32.2 -392.1,-52.1 -83.2,-12.6 -782.7,-55.3 -847.4,-116.6 0,0 -124.8,-1464.7 -342,-2440.9"
         style="fill:#20224c;fill-opacity:1;fill-rule:nonzero;stroke:none"
         id="path86" /><path
         d="m 12278.8,13838.4 574.2,-211.9 231.3,626.8 -574.3,211.9 c 0,0 -121,-516.4 -231.2,-626.8"
         style="fill:#f8a18f;fill-opacity:1;fill-rule:nonzero;stroke:none"
         id="path88" /><path
         d="m 12363,13986.8 c 135,-34.6 261.4,-72.6 403.3,-79.4 67.9,-3.2 132.3,0 194.8,12 l 123.2,333.9 -574.3,211.9 c 0,0 -67.2,-286.5 -147,-478.4"
         style="fill:#f57c73;fill-opacity:1;fill-rule:nonzero;stroke:none"
         id="path90" /><path
         d="m 12655.1,15139.5 c -22.6,-98.3 -52.6,-210.3 -48.8,-309.5 4.3,-113.5 80.3,-163.5 179.2,-79.8 93.1,78.7 164.4,200.3 209.7,309.1 24.9,59.5 139.5,319.6 119.7,380.4 -31.1,95.1 -238,-27.5 -312.4,-76.6 -80.5,-53 -127.5,-137.1 -147.4,-223.6"
         style="fill:#6f2f1a;fill-opacity:1;fill-rule:nonzero;stroke:none"
         id="path92" /><path
         d="m 12593.5,14935.2 c -65.7,-96.6 -122.7,-199.4 -166.8,-307.6 -44.7,-109.8 -141.1,-306 -67.6,-422.4 22.8,-35.9 49.2,-54.8 87.5,-80.4 146.3,-98 366.2,-119 534.2,-83.2 313.3,66.6 671.4,535.8 644.5,844.3 -24.5,281.6 -571.2,564.4 -805.8,324.7 -81,-82.8 -158,-175.6 -226,-275.4"
         style="fill:#f8a18f;fill-opacity:1;fill-rule:nonzero;stroke:none"
         id="path94" /><path
         d="m 12524.4,14628.5 c 6.5,-12.2 19.3,-38.1 28.1,-49.1 33.3,-41.8 74.7,-65.9 123.8,-85.7 69.6,-27.9 153.6,-36 198.7,-102.8 27.2,-40.3 52.4,-72.5 92.3,-100.3 50.7,-35.2 115.9,-27.3 172.7,-6 83.3,31.2 98.7,97.3 142.2,113.2 55.4,20.1 90.8,-12.3 143.5,-31 -124.8,-161.4 -290.2,-292.4 -444.9,-325.2 -168,-35.8 -387.9,-14.8 -534.2,83.2 -38.3,25.6 -64.7,44.5 -87.5,80.4 -73.5,116.4 22.9,312.6 67.6,422.4 10.2,25.1 21.3,49.9 32.9,74.4 25.6,-13.8 45.5,-37.4 64.8,-73.5"
         style="fill:#552313;fill-opacity:1;fill-rule:nonzero;stroke:none"
         id="path96" /><path
         d="m 13377.4,14421.4 c 28,7.5 47.9,25 78.7,25.3 26.7,0.2 25.8,-18.6 42.3,-30.2 40.8,-28.8 -3.7,-109 -20,-144.5 -0.8,-1.8 3.9,-1.6 4.7,-0.6 34.7,41.2 84.5,134.7 42,184.1 -37.2,43.1 -146.1,18.1 -174,-24.2 -7.4,-11 22.2,-11 26.3,-9.9 v 0"
         style="fill:#f68572;fill-opacity:1;fill-rule:nonzero;stroke:none"
         id="path98" /><path
         d="m 13751.9,14678.8 c 0,0 -105.5,-275.1 -280.2,-417.2 31,43.6 81.7,150 8.8,183.9 -67.1,31.4 -84.4,-79.4 -143.9,-89 0,0 -109.7,-16.7 -93,5.3 66.5,87.3 114.5,160.4 126,188.3 52.9,128 40.7,150.6 24.4,249.1 -13.1,78.5 -19.5,165.2 57,213.6 71.6,45.1 174.7,54.3 245.2,14.6 0,0 97.1,-176.4 55.7,-348.6"
         style="fill:#6f2f1a;fill-opacity:1;fill-rule:nonzero;stroke:none"
         id="path100" /><path
         d="m 12631,15156.1 c 0,0 131.3,337.1 415.3,343.9 0,0 528,-7.2 649.9,-472.6 0,0 -164.4,-120.3 -296.5,-152.1 -111.5,-26.8 -262.5,24.1 -412.7,105.9 0,0 41.6,12.2 50,39.3 0,0 -93.3,-34.7 -406,135.6"
         style="fill:#552313;fill-opacity:1;fill-rule:nonzero;stroke:none"
         id="path102" /><path
         d="m 13533.8,14402.8 c 22.1,-106.3 -140.4,-267.5 -309.6,-244.2 -8.6,56.5 55.2,151.2 82.2,200.9 26.5,48.8 54.2,94 108.3,114.6 16.6,6.3 102.8,7 119.1,-71.3"
         style="fill:#f8a18f;fill-opacity:1;fill-rule:nonzero;stroke:none"
         id="path104" /><path
         d="m 13342.7,14338.6 c -8.3,-9.7 -27.4,-23.7 -25.1,-38.1 1.4,-9.1 4.8,-17.7 11.8,-23.9 14.3,-12.3 38.7,-7.3 53.3,1.3 17.8,10.4 31.7,26.8 44.6,42.5 6.8,8.4 19.3,22.7 12.6,34.3 -3.1,5.5 -13.2,4.2 -17.9,2.3 -21.9,-8.7 -33.1,-32.8 -48.2,-49.6 -4.3,-4.7 -8.9,-9.1 -13.7,-13.3 -1.9,-1.6 -4,-3.3 -6.2,-4.7 -7.6,-4.8 -5.6,0.8 5.1,-3.3 -5.3,2 -7.8,12 -9.3,16.6 -2.9,8.9 12,25.5 16.1,32.8 4.7,8.4 -18.8,8.3 -23.1,3.1 v 0"
         style="fill:#f57c73;fill-opacity:1;fill-rule:nonzero;stroke:none"
         id="path106" /><path
         d="m 13410.8,14364.5 c 18.9,7.4 27.8,-16.4 28.3,-29.5 0.6,-14.4 -7.2,-27.9 -14.2,-39.8 -15.4,-26.1 -44.5,-35.3 -68.6,-50.7 -5.7,-3.7 5.7,-6.8 7.8,-6.7 50,1.5 96.2,36.5 108.1,85.3 10.4,42.9 -44.6,68.5 -76.9,47.3 -7.7,-5 12.1,-7.2 15.5,-5.9 v 0"
         style="fill:#f57c73;fill-opacity:1;fill-rule:nonzero;stroke:none"
         id="path108" /><path
         d="m 12928.6,14783.3 c 14.2,-0.1 27.1,-12.2 39.2,-18.9 21.4,-11.9 43.7,-15.6 64.5,-30.4 39,-27.6 80,-58.7 100.1,-103 5.6,-12.2 11.5,42.7 7,54.2 14.5,-37.1 3.4,-8.8 0,0 -4.9,12.5 -10.5,24.5 -16.8,36.3 -15.4,28.9 -36,47.3 -62.6,65.6 -33.1,22.7 -95.6,63.2 -132.3,25.7 -3.1,-3.1 -4.4,-29.4 0.9,-29.5 v 0"
         style="fill:#552313;fill-opacity:1;fill-rule:nonzero;stroke:none"
         id="path110" /><path
         d="m 12772.7,14900.7 c 9.4,17.5 -3.8,47.1 -15.9,59.4 -31.4,32 -67.4,52.4 -110.6,62.4 -0.5,-0.3 -1,-0.6 -1.5,-0.9 -2,-2.8 -4.1,-5.5 -6.1,-8.3 -4,-5.2 -3.7,-20.3 -0.8,-25.9 8.2,-16 12.8,-15.5 29,-23.2 15.6,-7.4 31.4,-17.9 46.7,-26.2 14.3,-7.6 27.7,-16.7 40.3,-26.8 3.4,-2.8 4.9,-3.9 8.6,-5.9 9.5,-5.1 6.6,0.1 7.1,9.9 -0.1,-1.4 1.9,-16.9 3.2,-14.5 v 0"
         style="fill:#552313;fill-opacity:1;fill-rule:nonzero;stroke:none"
         id="path112" /><path
         d="m 12675.2,14836.6 c -16.4,-25.2 -40.4,-38.4 -53.7,-29.7 -13.5,8.7 -11.1,36 5.2,61.2 16.4,25.1 40.5,38.4 53.8,29.7 13.4,-8.7 11,-36.2 -5.3,-61.2"
         style="fill:#724230;fill-opacity:1;fill-rule:nonzero;stroke:none"
         id="path114" /><path
         d="m 12946.6,14635.2 c -16.3,-25.1 -40.4,-38.4 -53.7,-29.7 -13.4,8.7 -11,36.1 5.3,61.2 16.3,25.1 40.4,38.4 53.7,29.7 13.5,-8.7 11.1,-36.1 -5.3,-61.2"
         style="fill:#724230;fill-opacity:1;fill-rule:nonzero;stroke:none"
         id="path116" /><path
         d="m 12739.1,14837.5 c -32.6,-48 -49.6,-89.3 -110.5,-106.3 -21.9,-6.1 -54.5,-15.6 -66.6,-37.1 -26.6,-46.9 16.3,-94.7 56.1,-116.5 14.1,-7.7 62.2,4 36.7,18 -23.5,12.8 -41.7,33.6 -48.4,59.9 -9.3,36.5 33.2,50.5 59.6,59.4 22,7.5 40.8,17.5 58.6,32.5 19.5,16.3 28.8,63.7 40,86.6 4.6,9.3 -21,10.1 -25.5,3.5 v 0"
         style="fill:#f57c73;fill-opacity:1;fill-rule:nonzero;stroke:none"
         id="path118" /><path
         d="m 12609.6,14436.2 c -60.7,-27.1 -127.3,19 -131.7,81.1"
         style="fill:none;stroke:#f57572;stroke-width:33.8774;stroke-linecap:round;stroke-linejoin:round;stroke-miterlimit:10;stroke-dasharray:none;stroke-opacity:1"
         id="path120" /><path
         d="m 13696.2,15027.4 -326.5,-154.8 c 0,0 -7.2,-152.8 -22,-311 0,0 193.9,-59.7 406.5,39.9 0,0 93.4,322.9 -58,425.9"
         style="fill:#552313;fill-opacity:1;fill-rule:nonzero;stroke:none"
         id="path122" /><path
         d="m 12791.9,13748.7 780.1,-637.6 -1253,-2033.5 -1177.8,406.7 421.7,2271.6 810.6,137.2 418.4,-144.4"
         style="fill:#f8a18f;fill-opacity:1;fill-rule:nonzero;stroke:none"
         id="path124" /><path
         d="m 12329,13908.5 -680.6,-130.2 -538.8,-2265.2 c 196.2,-203.2 356.4,-172.2 724.6,-298.8 117.7,-40.6 444.4,-225.5 538.2,-119.5 57,64.4 199.1,192.3 224,273 24.8,80.8 157.2,180.3 191.2,257.8 34,77.4 59.9,157.1 123.7,215.2 118.7,108.4 185.8,306.2 270.6,444.6 86.1,140.4 134.9,207.9 189,364.1 28.7,83.1 132.1,151.5 180.3,225.2 51.3,78.4 74.9,186.1 3.5,254.2 -63.4,60.4 -135.1,123.2 -203.2,179 l -477.1,373.7 c 0,0 -496.2,-0.3 -545.4,226.9"
         style="fill:#1e418f;fill-opacity:1;fill-rule:nonzero;stroke:none"
         id="path126" /><path
         d="m 11299.6,12327.5 493.3,696 c 0,0 385.7,409 140.5,806.9 0,0 -402.6,20.9 -624.2,-270.3 l -544.1,-670.7 c 0,0 -68.8,-198.1 534.5,-561.9"
         style="fill:#1e418f;fill-opacity:1;fill-rule:nonzero;stroke:none"
         id="path128" /><path
         d="m 13113.3,12594.7 c 0,0 -118.9,-518 -253.9,-774.4 -75,-142.4 -90.6,-275.7 -103.9,-432.8 -6.5,-77.6 4.5,-160.3 -20.6,-235.3 -23.8,-71.4 -67.8,-135.5 -93.7,-207.5 -50.8,-141.3 -129.7,-268.9 -149.3,-418.7 -10.5,-80.6 60.5,-274.8 29.8,-350.3 -35.6,-87.9 -192,-450.6 -398.6,-487.3 -328,97.2 -226.4,343.7 -238.3,620.5 -21.6,504 -491.2,736 -918,836.9 -111.1,26.3 -303.7,58.3 -378.5,159 -79.5,107.2 378.8,493.3 391.1,631.7 13.5,151.4 35.1,226 126.1,339.3 111.2,138.6 217,277.6 310.3,428.9 80.6,130.8 160.4,257.6 306.5,322.3 426,188.2 961.4,-54.2 1283.3,-335.3 l 107.7,-97"
         style="fill:#1e418f;fill-opacity:1;fill-rule:nonzero;stroke:none"
         id="path130" /><path
         d="m 12211.9,13846.9 c -22.3,-46 47.9,-106.7 78.3,-132.4 56,-47.4 124.7,-81 192.8,-107.1 69.7,-26.8 144.9,-43.5 219.5,-48.1 53.3,-3.3 129.5,-6.1 172.1,31.8 24.4,21.6 -37.3,25.3 -47,23.1 -110.8,-25 -213,-5.3 -319.3,31.8 -60.8,21.2 -119.2,51.7 -170.2,91.1 -21.8,16.9 -41.3,36.6 -57.6,58.8 -13,17.7 -21.7,38.1 -38.1,53 -6.1,5.5 -26.2,6.9 -30.5,-2 v 0"
         style="fill:#13295b;fill-opacity:1;fill-rule:nonzero;stroke:none"
         id="path132" /><path
         d="m 12094.5,13849.5 c -32.1,-6 -69.7,-5.6 -97,-26.3 -44.7,-33.8 -84.5,-74.8 -123.9,-114.5 -31.5,-31.9 -49.6,-84.6 -68.1,-125 -21.2,-46 -51,-87.6 -60.4,-138 -10,-54.3 -32,-114.7 -58,-163.7 -27.9,-52.3 -39.4,-115.2 -58.6,-171.1 -37,-107.7 -74.4,-217.2 -123.7,-320.1 -3.7,-7.8 17.4,-8.3 21.2,-2.9 60.7,88.3 102.4,180.5 137.4,281 17.9,51.4 34.1,103.3 51.6,154.9 17.6,52.2 43,101.3 61.2,153.5 16.7,48 26.6,94.7 49,140.5 20.9,42.9 44.2,84.6 65,127.6 24,49.3 61.9,83.7 100.5,121.9 19.8,19.6 38.2,41.2 64,53 16.7,7.7 34.5,12.3 51.5,19.4 11.4,4.7 -6.6,10.8 -11.7,9.8 v 0"
         style="fill:#13295b;fill-opacity:1;fill-rule:nonzero;stroke:none"
         id="path134" /><path
         d="m 11538.9,12588.3 c -34.8,-34.1 -65.6,-72.1 -96,-110.1 -24.3,-30.4 -51,-59.3 -77.1,-88.3 -18.9,-21 -43.4,-33.7 -60.4,-58 -25,-35.8 -118.2,-209.4 -51.2,-239 6.5,-2.8 55.7,-4.4 43.6,12.5 -18.9,26.3 0.1,91.5 9.2,116.7 18.1,50.8 35.1,98.5 75.2,136.7 69.1,65.9 119.8,143.7 163.4,228.1 1.3,2.5 -5.5,2.5 -6.7,1.4 v 0"
         style="fill:#13295b;fill-opacity:1;fill-rule:nonzero;stroke:none"
         id="path136" /><path
         d="m 11398.6,11189.3 c 38,-39.4 90.9,-57 140.8,-76.7 59,-23.3 115,-48.6 162.6,-91.5 117.1,-105.5 134.5,-294.6 148.2,-440.9 13.7,-145.6 -7,-292.1 -1.9,-438.2 2.5,-70.6 10.8,-142 29.6,-210.2 18.6,-67.3 44.3,-147.3 104.2,-188.9 5,-3.5 29.7,-7.6 29.1,3.8 -1.5,30.1 -20.2,61.4 -32.3,88.8 -16.7,37.7 -29.6,76 -39.5,116 -17.9,72.7 -22.7,148.3 -24.1,222.9 -2.9,157.3 22.7,315.6 13.2,472.6 -8.5,142.3 -48.4,293.7 -155.2,394.5 -43,40.6 -99.2,63.9 -153.7,84.4 -66.7,25.1 -133.9,49.3 -201.1,73.2 -5.1,1.8 -29.1,-0.3 -19.9,-9.8 v 0"
         style="fill:#13295b;fill-opacity:1;fill-rule:nonzero;stroke:none"
         id="path138" /><path
         d="m 12114.1,10957 c 31.5,-62.1 74.4,-116.9 92.5,-185.4 18.1,-68.7 7.5,-126.3 -7.7,-193.5 -13.7,-60.8 -21.9,-116.6 -23.9,-179.4 -1,-32.7 2,-65.5 7.9,-97.7 5.4,-28.9 20.5,-46 33.8,-70.5 12.3,-22.4 88.9,-20.9 79.5,10.8 -7.4,24.8 -23.9,43.6 -29.8,70.2 -7.6,34 -9.1,69.2 -9.3,104 -0.4,66.2 9.8,123.4 23.4,187.6 13.8,64.9 5.2,127.1 -14.1,189.9 -10.5,34.1 -28,62.2 -50.5,89.4 -27,32.6 -60.2,48.5 -90.3,77 -2.1,1.9 -13.7,2 -11.5,-2.4 v 0"
         style="fill:#13295b;fill-opacity:1;fill-rule:nonzero;stroke:none"
         id="path140" /><path
         d="m 6151.13,10317.2 -750.19,95.8 -38.27,274.3 840.77,139.9 -52.31,-510"
         style="fill:#f8a18f;fill-opacity:1;fill-rule:nonzero;stroke:none"
         id="path142" /><path
         d="m 8231.16,11075 c 435.06,54.4 614.86,-686.5 177.96,-820.3 -219.97,-67.4 -486.63,-97.2 -715.63,-110.4 -89.97,-5.2 -190.16,-13.8 -280.05,-3.8 -458.02,50.9 -567.6,90 -1026.33,125.2 -79.53,6.1 -206.38,-29.4 -254.82,37 -180.15,247.5 -34.22,550.5 -34.22,550.5 0,0 2127.19,221.1 2133.09,221.8"
         style="fill:#20224c;fill-opacity:1;fill-rule:nonzero;stroke:none"
         id="path144" /><path
         d="m 5352.71,10333.1 c 203.02,-1 425.97,5.5 600.15,-0.2 0,0 -31.71,248.5 -88.36,442.2 -164.08,12.2 -325.1,-83.2 -489.57,-59.3 -175.35,25.4 -411.99,100.4 -574.34,174.7 -81.74,37.4 -424.67,247 -277.87,10.8 76.57,-123.1 243.85,-148.3 328.23,-269.4 69.56,-99.8 101.17,-299.1 216,-360.1 108.28,-57.5 177.22,61.9 285.76,61.3"
         style="fill:#f1f1ef;fill-opacity:1;fill-rule:nonzero;stroke:none"
         id="path146" /><path
         d="m 10905.7,10809.9 c -478.4,-178.1 -1009.96,-290.4 -1293.92,-665.2 -123.14,-162.5 -199.93,-345.4 -202.48,-544.7 -5.54,-439.8 38.96,-820.6 38.96,-1171"
         style="fill:none;stroke:#13132a;stroke-width:33.3764;stroke-linecap:butt;stroke-linejoin:miter;stroke-miterlimit:10;stroke-dasharray:none;stroke-opacity:1"
         id="path148" /><path
         d="m 10377.2,9741.8 c 5.6,-183.6 2.7,-547.2 -21.3,-819.9 -24.6,-280.9 -74.5,-558.5 -120.9,-836.3 -43.7,-262.2 -50.5,-548.6 -130.3,-802.6"
         style="fill:none;stroke:#13132a;stroke-width:33.3764;stroke-linecap:round;stroke-linejoin:round;stroke-miterlimit:10;stroke-dasharray:none;stroke-opacity:1"
         id="path150" /><path
         d="m 11606.6,9530.4 c -177.8,-18.2 -360.4,-17.3 -539.6,-44.2 -179.4,-27 -356.9,-59.5 -539.6,-78.3 -45.5,-4.7 -107.4,-8.9 -139,-22.1"
         style="fill:none;stroke:#13132a;stroke-width:33.3764;stroke-linecap:round;stroke-linejoin:round;stroke-miterlimit:10;stroke-dasharray:none;stroke-opacity:1"
         id="path152" /><path
         d="m 10594.2,9658.4 c -51.6,-30.9 -100.7,-84.8 -134.9,-132 -32.5,-44.9 -43.9,-106.8 -76.5,-146.2"
         style="fill:none;stroke:#13132a;stroke-width:33.3764;stroke-linecap:round;stroke-linejoin:round;stroke-miterlimit:10;stroke-dasharray:none;stroke-opacity:1"
         id="path154" /><path
         d="m 9325.87,10042.2 c -200.07,9.1 -398.08,40.8 -592.7,87.2 -174.76,41.7 -360.1,126.8 -541.64,81.8 -183.84,-45.6 -377.16,-95 -567.86,-85.6 -262.84,13 -627.63,52.5 -884.48,116.9"
         style="fill:none;stroke:#13132a;stroke-width:33.3764;stroke-linecap:round;stroke-linejoin:round;stroke-miterlimit:10;stroke-dasharray:none;stroke-opacity:1"
         id="path156" /><path
         d="m 9934.98,11210.4 c -333.76,8.3 -669.39,-30.4 -784.34,-41.7 -135.01,-13.4 -275.03,-22.7 -408.86,-49.9 -264.51,-53.9 -535.59,-52.6 -800.84,-92.2 -172.1,-25.8 -346.54,-49.2 -525.87,-49.9"
         style="fill:none;stroke:#13132a;stroke-width:33.3764;stroke-linecap:round;stroke-linejoin:round;stroke-miterlimit:10;stroke-dasharray:none;stroke-opacity:1"
         id="path158" /><path
         d="m 14521.5,13594.9 861.2,-317 -474.2,-2123.2 h -1135 l -66.9,2247.5 411.8,192.7 h 403.1"
         style="fill:#f8a18f;fill-opacity:1;fill-rule:nonzero;stroke:none"
         id="path160" /><path
         d="m 14067.3,13569.7 h 509.5 v 608.5 h -509.5 c 0,0 54.3,-479.4 0,-608.5"
         style="fill:#f8a18f;fill-opacity:1;fill-rule:nonzero;stroke:none"
         id="path162" /><path
         d="m 14085.4,13652.2 c 20.7,184 -18.1,526 -18.1,526 h 509.5 v -197.3 c -97.1,-193.1 -271.7,-353.8 -491.4,-328.7"
         style="fill:#f57c6e;fill-opacity:1;fill-rule:nonzero;stroke:none"
         id="path164" /><path
         d="m 14685.4,13549.5 c 122.3,-45.1 324.5,-134.6 446.7,-179.7 75.2,-27.8 157.8,-48.6 230.5,-81.7 81.6,-37.4 93.3,-137.1 72.5,-219.9 -67,-265.5 -140.8,-529.5 -198.5,-797.3 -39.5,-183.6 -75.3,-368 -102.7,-553.9 -24.3,-165.6 -64.9,-336.7 -34.8,-504.4 22.8,-126.8 -535.2,-84.2 -648.6,-84.4 -354.7,-0.4 -479.3,-27.3 -708.7,89.3 l -40.4,2182.2 277.8,130 c 0,0 269,-356.5 706.2,19.8"
         style="fill:#e43ea8;fill-opacity:1;fill-rule:nonzero;stroke:none"
         id="path166" /><path
         d="m 13640.2,13371.1 c -18.8,-402.3 -105.6,-649.9 -117.4,-918.4 -4.4,-98.5 17.8,-181.2 53,-272.3 89.1,-230.8 127.3,-514.6 143.3,-627 74.2,-517.9 156.1,-507.1 427.4,-448.9 160.6,34.5 194.2,644.4 223,793 44.2,229.2 7.9,504.8 -164.8,675.1 -123.4,121.7 -283.5,155.8 -347.5,330.9 -47,128.1 167.4,308.6 27.1,362.4 -2.5,-5.5 -86.9,185.4 -85.3,179.5"
         style="fill:#e43ea8;fill-opacity:1;fill-rule:nonzero;stroke:none"
         id="path168" /><path
         d="m 13832.6,14480.6 c 1.8,-189.9 37.1,-522.7 169.9,-642.2 161.2,-144.8 593.3,99.9 722.2,250.6 161.2,188.5 173.5,529.7 126.2,766.1 -53.9,269.3 -318.7,440.1 -591.9,368.4 -273,-71.5 -428.8,-493.9 -426.4,-742.9"
         style="fill:#f8a18f;fill-opacity:1;fill-rule:nonzero;stroke:none"
         id="path170" /><path
         d="m 14843.1,14866.9 c -11.6,50.9 -30.7,98.1 -55.8,140.6 l -85.2,-617.1 -3.2,-236.2 19.8,-74.9 c 6,6.3 11.6,12.7 16.5,18.8 156.7,192.3 160.7,533.7 107.9,768.8"
         style="fill:#f57c6e;fill-opacity:1;fill-rule:nonzero;stroke:none"
         id="path172" /><path
         d="m 14940.8,14539.5 c 66.5,-82.5 -2.9,-294.8 -160.2,-349.9 -32.5,45.3 -19.2,155.8 -17.9,211 1.3,54.2 5.2,105.8 43,147.8 11.6,12.8 86.1,51.8 135.1,-8.9"
         style="fill:#f8a18f;fill-opacity:1;fill-rule:nonzero;stroke:none"
         id="path174" /><path
         d="m 14802.1,14402.5 c -2.9,-11.6 -13.5,-31.5 -5.4,-42.5 5.6,-7.7 13.4,-14.9 22.9,-17.4 18.9,-4.9 36.7,0.4 48,16.4 10.8,15.3 15.1,35.8 19.2,53.8 3,13.5 5.9,29.2 -5.2,39.9 -4.3,4.1 -14,3.3 -18.5,0 -18.3,-14 -16.1,-44.9 -21.9,-65.2 -2.9,-10.5 -6.9,-23.2 -15.5,-30.5 2.8,2.4 14.1,-1 9.2,1.6 -3.1,1.7 -5.9,5 -8.4,7.5 -6,6.2 -0.6,28.5 -0.4,36.4 0.2,8.5 -22,7.8 -24,0 v 0"
         style="fill:#f57c6e;fill-opacity:1;fill-rule:nonzero;stroke:none"
         id="path176" /><path
         d="m 14852,14449 c 35.2,36.4 41.5,-33.5 39.6,-51.8 -2.9,-28 -25.6,-46.8 -35.5,-71.5 -2.7,-6.8 12.3,-5.8 15.3,-4.3 43.8,20.6 70.6,79.8 49.1,125 -14.4,30.4 -70,38.4 -86.6,6.3 -3.6,-6.8 14.8,-7.1 18.1,-3.7 v 0"
         style="fill:#f57c6e;fill-opacity:1;fill-rule:nonzero;stroke:none"
         id="path178" /><path
         d="m 14628.1,15233.1 c -18.1,-14.3 -32.1,-34.7 -41.2,-53.7 -34.8,-43.8 -137.7,-225.6 -156.8,-253.4 -52,-75.2 7.8,-137.6 60.9,-188.9 16.7,-16.2 33.8,-32.3 50.4,-48.7 50.2,-49.2 97.4,-101.3 123.4,-168.1 17.1,-44.1 30.1,-166.4 94,-171.1 3.7,63.9 27,194.2 121.6,211.2 11.8,4.3 51.9,0.9 85.5,-70.6 0,0 188.6,621.6 -337.8,743.3"
         style="fill:#44150f;fill-opacity:1;fill-rule:nonzero;stroke:none"
         id="path180" /><path
         d="m 14411,14896.4 217.1,336.7 c -80.1,107.4 -364.7,82.9 -364.9,82.9 -98.4,-8.5 -484.6,-191.5 -607.7,-475.2 0,0 -175.3,-417.1 205.3,-681.3 -46.4,280.2 -45,462.7 64.9,646.4 71,-23.7 243.7,-4.7 301.5,22.4 63.4,29.7 147,55.2 202.9,97.7"
         style="fill:#44150f;fill-opacity:1;fill-rule:nonzero;stroke:none"
         id="path182" /><path
         d="m 13741.8,11217.5 c 0,0 590.7,-24.9 1357.3,-4.9 301.3,-460.6 483.3,-856.7 426.7,-1325.1 0,0 -119.6,-379.1 -704.6,-414.7 l -1179.1,183.5 -1041.8,-38.5 c 0,0 -1014.3,1110.9 -363.5,1305.5 l 1257.4,-162.9 247.6,457.1"
         style="fill:#6ab4e5;fill-opacity:1;fill-rule:nonzero;stroke:none"
         id="path184" /><path
         d="m 13727.3,12996.5 c -68.7,-112.6 -154.6,-214 -223.1,-326.9 -30.4,-50 -58.1,-103.2 -64.3,-162.1 -6,-57.3 23.6,-116.6 48.4,-166.1 23.3,-46.6 37.6,-92.9 72,-133.7 56.2,-66.8 150.1,-146.2 237.2,-160.2 5.1,-0.8 33.3,0 30.4,11.3 -10.3,39.8 -69.7,60.9 -101.5,83.9 -33,23.9 -65.2,50.8 -91.5,82.2 -27.9,33.3 -41.8,72 -58.2,111.4 -22.2,53 -53.3,97.5 -59.1,156.3 -6.4,64 32.5,128.6 62.5,182.4 59.8,107.3 135.5,198.9 171.3,318.2 3,9.8 -20.1,9.8 -24.1,3.3 v 0"
         style="fill:#ce298f;fill-opacity:1;fill-rule:nonzero;stroke:none"
         id="path186" /><path
         d="m 14716.4,13388.3 c -69.6,-41.6 -134.2,-83.3 -211.8,-109.3 -80.8,-27.1 -161.7,-32.8 -246.1,-31.6 -71,1 -133.1,26.5 -193.5,61.9 -56.2,33 -88.3,85.5 -137,124.3 -9.1,7.2 -29.9,8.4 -38.8,0 -26.6,-25.5 -22.4,-41.8 1,-71 24.4,-30.5 56.3,-54.3 88.7,-75.6 74.5,-48.9 158.3,-80.4 247.7,-84.3 99.3,-4.3 195.3,2.3 290.5,31.8 78.6,24.3 189.1,68.1 229.8,145.1 6.6,12.4 -25,12 -30.5,8.7 v 0"
         style="fill:#ce298f;fill-opacity:1;fill-rule:nonzero;stroke:none"
         id="path188" /><path
         d="m 13553.4,12249.7 c 47.6,-154.7 86.7,-314.9 117.4,-473.9 16.9,-87.7 29.5,-176.2 38.5,-265.1 9.7,-96.1 22.9,-197 24.1,-293.2 0.1,-5.8 16,-5.8 16.7,0 12.8,94.4 18.1,181.8 9,277.5 -9,94.2 -23.9,187.9 -42.1,280.8 -12.5,63.8 -28.5,127 -48.3,188.9 -30.8,96.2 -58.8,195.4 -102.3,286.7 -1.8,3.9 -14.6,3.4 -13,-1.7 v 0"
         style="fill:#ce298f;fill-opacity:1;fill-rule:nonzero;stroke:none"
         id="path190" /><path
         d="m 13489.6,11051.8 c 561.4,-102.9 865,-119.6 1899.7,-164.1 264.6,-11.4 252.9,149.9 287.1,431.2 80.8,663 -124.7,1682.4 -249.4,1860.7 -10.9,44.2 -309.8,265.9 -415.5,-114.4 0,0 -1.4,-894.9 146.9,-1704.6 0,0 -75.1,-83.5 -1602.1,-116.8 0,0 -116.8,16.6 -66.7,-192"
         style="fill:#f79885;fill-opacity:1;fill-rule:nonzero;stroke:none"
         id="path192" /><path
         d="m 15283,13307.3 c 0,0 287.6,-9.4 465.6,-681.1 l 95.4,-847.6 c 0,0 -665.2,-243.5 -883.3,-119 l -46.6,1324.1 c 0,0 13.9,359.6 368.9,323.6"
         style="fill:#e43ea8;fill-opacity:1;fill-rule:nonzero;stroke:none"
         id="path194" /><path
         d="m 14984.7,13237.7 c -83.4,-34.9 -90.7,-164 -100.9,-240.7 -16.1,-121 1.9,-249.1 5.5,-370.8 3.1,-106.9 8.3,-213.8 13,-320.6 2.7,-61 5.8,-122 9.2,-183.1 3.3,-59.4 5.8,-134 33.1,-187.4 3.6,-7 25,-8 28.1,0 20.2,52.3 12.5,114.5 13.7,169.8 1.2,61.5 -2.7,123.4 -3.9,184.9 -2,103 -3,206 -4.9,309 -2.2,116.7 -15.4,233.3 -13.5,350 0.7,46.8 7.3,94.5 13.8,140.8 3.6,25.2 9.5,49.6 18.2,73.5 8,22 25.9,40.5 32.2,62.2 5.9,20.1 -33.8,16.5 -43.6,12.4 v 0"
         style="fill:#ce298f;fill-opacity:1;fill-rule:nonzero;stroke:none"
         id="path196" /><path
         d="m 12974.5,9865.8 -433.6,-38.3 6.8,-330 433.3,11.6 -6.5,356.7"
         style="fill:#f79885;fill-opacity:1;fill-rule:nonzero;stroke:none"
         id="path198" /><path
         d="m 12672.6,9496.5 c -187.1,-51.5 -721,-8.3 -915.2,65.4 -235.2,89.3 -219,560.1 77.2,492.7 268.4,-61.1 550.4,-170.8 824.1,-193 0,0 163,-126.4 13.9,-365.1"
         style="fill:#ffffff;fill-opacity:1;fill-rule:nonzero;stroke:none"
         id="path200" /><path
         d="m 12672.6,9496.5 c -66.9,137.9 -29.2,425.5 -29.2,425.5 l 233.9,122.8 c 288.5,224.5 631,370.3 913.6,602.2 218.7,179.5 432.8,479.1 750.8,447.3 215,-21.5 363.2,-183.1 486.6,-345.3 205.5,-270.4 497.5,-490.9 497.5,-861.5 0,-313 -415.2,-547.9 -639.2,-512.6 -165.5,26.2 -414.3,234.8 -506.2,360.5 l -247,304.8 c 0,0 -98.2,-320 -1051.8,-520.7 0,0 -283.5,-60.7 -409,-23"
         style="fill:#6ab4e5;fill-opacity:1;fill-rule:nonzero;stroke:none"
         id="path202" /><path
         d="m 14362.9,11077.2 c -100.1,-28.5 -227.3,-159.2 -369.6,-244.9 -122,-73.3 -370.9,-281 -471.1,-375.9 -233.6,-218.3 -460.1,-341.1 -727.1,-521.4"
         style="fill:none;stroke:#488fbc;stroke-width:33.3764;stroke-linecap:round;stroke-linejoin:round;stroke-miterlimit:10;stroke-dasharray:none;stroke-opacity:1"
         id="path204" /><path
         d="m 13522.2,9845.5 403.2,-164.2 -103.6,-313.5 -410.7,138.7 111.1,339"
         style="fill:#f79885;fill-opacity:1;fill-rule:nonzero;stroke:none"
         id="path206" /><path
         d="m 13702.2,9403.7 c 163.6,-104.3 686.6,-220.1 893.9,-206.8 251.1,16.1 374.1,470.9 71.2,493.5 -274.6,20.6 -576.4,-1.2 -844.5,58.1 0,0 -192.9,-72.8 -120.6,-344.8"
         style="fill:#ffffff;fill-opacity:1;fill-rule:nonzero;stroke:none"
         id="path208" /><path
         d="m 12030.2,10566.5 c 25.6,0 25.6,20.9 0,20.9 -25.6,0 -25.6,-20.9 0,-20.9 v 0"
         style="fill:#6ab4e5;fill-opacity:1;fill-rule:nonzero;stroke:none"
         id="path210" /><path
         d="m 11664.2,11078.9 c -435.2,-56.6 -322.6,-460.8 -170,-600.7 410.8,-376.9 1003.5,-660.6 1520.6,-860.4 17.5,-6.7 507.4,-189.5 589.4,-222.3 -101.8,246 125.5,417.4 125.5,417.4 0,0 -578.7,280.1 -966.9,688.3 0,0 -580.1,687.5 -1098.6,577.7"
         style="fill:#6ab4e5;fill-opacity:1;fill-rule:nonzero;stroke:none"
         id="path212" /><path
         d="m 13762,9812.9 c -431.8,181.8 -756,493.8 -1100.8,799.1 -181.4,160.7 -375.6,302.8 -590.1,414.8"
         style="fill:none;stroke:#488fbc;stroke-width:33.3764;stroke-linecap:round;stroke-linejoin:round;stroke-miterlimit:10;stroke-dasharray:none;stroke-opacity:1"
         id="path214" /><path
         d="m 13109.9,9574.9 c -95.6,50.4 -205.8,83.3 -304.3,129.3 -86.5,40.4 -176.9,71 -262.1,111.5 -128.8,61.3 -260.2,121 -385.7,189.9 -72.6,39.7 -163.4,75.9 -224.4,132.6"
         style="fill:none;stroke:#488fbc;stroke-width:33.3764;stroke-linecap:round;stroke-linejoin:round;stroke-miterlimit:10;stroke-dasharray:none;stroke-opacity:1"
         id="path216" /><path
         d="m 14333.2,9784.3 c -41.8,66.7 -141.9,158.5 -217,133.5 -108.5,-25.1 -183.5,-141.9 -300.4,-150.2"
         style="fill:none;stroke:#488fbc;stroke-width:33.3764;stroke-linecap:round;stroke-linejoin:round;stroke-miterlimit:10;stroke-dasharray:none;stroke-opacity:1"
         id="path218" /><path
         d="m 15409.6,10373.9 c -94.6,122.4 -205.9,244.8 -317.1,356 -39,44.5 -83.5,83.5 -122.4,122.4 -39,39 -100.2,66.8 -133.5,105.7"
         style="fill:none;stroke:#488fbc;stroke-width:33.3764;stroke-linecap:round;stroke-linejoin:round;stroke-miterlimit:10;stroke-dasharray:none;stroke-opacity:1"
         id="path220" /><path
         d="m 14229.6,14347.8 c 0.1,-25.1 48.2,-45.4 107.5,-45.2 59.3,0.2 107.3,20.7 107.2,45.8 0,25.1 -48.2,45.3 -107.4,45.2 -59.3,-0.2 -107.3,-20.7 -107.3,-45.8"
         style="fill:#f68587;fill-opacity:1;fill-rule:nonzero;stroke:none"
         id="path222" /><path
         d="m 13836.3,14346.7 c 0.1,-25.1 38.8,-45.3 86.6,-45.2 47.8,0.1 86.4,20.6 86.3,45.7 0,25.1 -38.7,45.4 -86.5,45.2 -47.8,-0.1 -86.5,-20.5 -86.4,-45.7"
         style="fill:#f68587;fill-opacity:1;fill-rule:nonzero;stroke:none"
         id="path224" /><path
         d="m 13941.9,14520.8 c 20.9,-1.3 37,-31.2 35.7,-66.6 -1.1,-35.4 -19.1,-63.1 -40.1,-61.6 -20.9,1.3 -37,31 -35.8,66.5 1.3,35.5 19.2,63.1 40.2,61.7"
         style="fill:#724230;fill-opacity:1;fill-rule:nonzero;stroke:none"
         id="path226" /><path
         d="m 14308.4,14522 c 20.9,-1.4 37,-31.2 35.7,-66.7 -1.2,-35.5 -19.2,-63.1 -40.2,-61.8 -20.9,1.5 -36.9,31.2 -35.6,66.7 1.1,35.5 19.1,63.1 40.1,61.8"
         style="fill:#724230;fill-opacity:1;fill-rule:nonzero;stroke:none"
         id="path228" /><path
         d="m 14041.3,14578 c -27.7,19.8 -59.4,32.5 -92.8,35 -33.7,2.5 -75.1,-16.8 -96.3,-42.2 -1.6,-2 -2.1,-11 0.3,-12.4 23.6,-13.6 57.2,8.3 83.9,9.3 35.7,1.3 67.1,-36 103.9,-25.3 6.3,1.8 5.9,32.2 1,35.6 v 0"
         style="fill:#552313;fill-opacity:1;fill-rule:nonzero;stroke:none"
         id="path230" /><path
         d="m 14236.4,14542.4 c 30.3,-8.9 63.5,15.8 91.8,24.1 32.9,9.7 67,-24.9 95.9,-8.1 2.4,1.4 2,10.4 0.4,12.4 -20.3,24.3 -53.2,37.5 -84.3,42 -36.3,5.3 -75.9,-14.1 -104.9,-34.8 -4.9,-3.4 -5.3,-33.8 1.1,-35.6 v 0"
         style="fill:#552313;fill-opacity:1;fill-rule:nonzero;stroke:none"
         id="path232" /><path
         d="m 14144.6,14251.8 c -35.8,17.3 -79.6,40.2 -104.8,71 17.5,31.3 60.1,46 73,80 9.1,23.8 52.6,86.8 -30.8,153.6"
         style="fill:none;stroke:#f57c6e;stroke-width:37.6339;stroke-linecap:round;stroke-linejoin:round;stroke-miterlimit:10;stroke-dasharray:none;stroke-opacity:1"
         id="path234" /><path
         d="m 14198.8,14164.2 c -25.9,-37.8 -82.8,-61.3 -125.1,-41.7"
         style="fill:none;stroke:#f35e65;stroke-width:33.3764;stroke-linecap:round;stroke-linejoin:round;stroke-miterlimit:10;stroke-dasharray:none;stroke-opacity:1"
         id="path236" /><path
         d="m 14481.5,14310.8 59,-35.4 66.5,150.3 5.5,51 -131,-165.9"
         style="fill:#ffffff;fill-opacity:1;fill-rule:nonzero;stroke:none"
         id="path238" /><path
         d="m 14197.3,13766 c -282.3,-79.1 -367.6,479.2 -356.2,492.6 11.3,13.4 38.3,-64 92.3,-49.5 53.9,14.5 39.2,75 174.1,100 150,27.9 185,-60.3 295.6,-29.7 73.6,20.4 118.1,75.7 137.4,66.1 19.2,-9.7 45.8,-107.7 19.1,-236.6 -26.7,-128.8 -116.2,-273.9 -362.3,-342.9"
         style="fill:#ffffff;fill-opacity:1;fill-rule:nonzero;stroke:none"
         id="path240" /><path
         d="m 14287.2,13960.4 c 0,0 -140.7,-8.1 -190.8,34.5 -50.1,42.5 -88,127.7 -88,127.7 0,0 51.4,-63.2 117.3,-97.5 66,-34.3 161.5,-64.7 161.5,-64.7"
         style="fill:#def4fd;fill-opacity:1;fill-rule:nonzero;stroke:none"
         id="path242" /><path
         d="m 14458.5,14181.4 c 0,0 49.2,40.8 57.4,60.4 8.3,19.5 26.7,71.2 26.7,71.2 l -20.9,-3.9 -7.4,19.7 c 0,0 -14.9,-38.3 -41.2,-55 -26.1,-16.7 -70.7,-28.3 -70.7,-28.3 l 89.6,9.9 -33.5,-74"
         style="fill:#def4fd;fill-opacity:1;fill-rule:nonzero;stroke:none"
         id="path244" /><path
         d="m 14557,13995.6 c -13.5,-267.6 1.1,-545.6 -25.2,-809.4 -18.4,-184 -178.6,-911 150.2,-872.8 244.9,28.5 1019,12.4 918.6,440.6 -63.4,270.7 -166.9,459 -256.9,832.8 -57.3,237.5 -148.5,468.2 -160.3,719.2 -11.3,243.4 -126.4,618.6 -317.1,792.7 -102.4,93.6 -251.9,105.9 -377.9,34 -86.2,-49.2 -124.6,-135.7 -145.5,-228.7 -28.1,-124.5 40.1,-164.8 98.8,-268.4 110.7,-195.2 126.4,-420.3 115.3,-640"
         style="fill:#44150f;fill-opacity:1;fill-rule:nonzero;stroke:none"
         id="path246" /><path
         d="m 12763.6,11154.7 c -11.1,255.9 24,470.9 24,470.9 65.4,367.6 -44.6,1109.4 150.4,1313.9 175.2,183.5 452.9,178 588.6,-31.5 182.7,-282.1 -38.5,-1401.7 -273.4,-1931.3 0,0 -55.7,-233.6 -433.9,-300.3 0,0 -700.9,-122.4 -1223.8,-66.8 0,0 -33.4,100.1 -22.3,189.1 0,0 934.6,166.9 1190.4,356"
         style="fill:#f8a18f;fill-opacity:1;fill-rule:nonzero;stroke:none"
         id="path248" /><path
         d="m 13617.4,11292.3 42,1519.1 c -7.8,261.8 -143.2,352 -173.4,362.5 -460.6,159.1 -697.5,-395.7 -697.5,-395.7 l -183.6,-1342.9 c 0,0 403.2,-289.3 1012.5,-143"
         style="fill:#1e418f;fill-opacity:1;fill-rule:nonzero;stroke:none"
         id="path250" /><path
         d="m 13325.8,13231.7 c -49.9,-21.4 -100.8,-40 -150.6,-62.3 -59.1,-26.4 -103.6,-72.6 -149.3,-116.6 -82.3,-79.3 -124.6,-197.2 -146.7,-306.3 -14.5,-71.5 -27.2,-141.9 -36.8,-214.4 -9.3,-70.4 -4.9,-142 -13.9,-212.5 -9,-70.9 -11.3,-142.4 -20.1,-213.3 -8.6,-69.6 -24.1,-137.6 -23.7,-208 0,-5.9 15.4,-5.5 16.6,0 14.6,64.6 40.3,125.9 56.2,190.2 15.8,63.7 22.5,130 31.6,194.9 9,65.2 27.4,128.5 35.8,194 8.6,66.7 16.6,134.5 30.4,200.4 23.8,113.6 54.1,223.2 118.2,321.6 66.4,102 183.9,151.9 277.7,222.7 12.2,9.2 -19.7,12 -25.4,9.6 v 0"
         style="fill:#13295b;fill-opacity:1;fill-rule:nonzero;stroke:none"
         id="path252" /><path
         d="m 10912.1,10858.4 c -35.2,-99.3 264.3,-82.4 316.2,-104.2 -68.6,0.9 -328.6,24 -349.4,-42.6 -8.5,-40.6 225.5,-29 269.6,-35.6 -40.6,-7.4 -205.4,-10.6 -208.8,-59.6 5.9,-34.9 165.9,-21.9 215.1,-26.2 -11.2,-5.7 -160.1,-17.2 -145.6,-45.4 12.1,-28.3 116.4,-36 168.5,-36 234.9,0.4 494.7,-6 451.8,149.4 -32,116.1 -52.9,179.4 -357.2,346.1 -52.5,28.8 -45.9,-80 46.5,-159.4 -23.1,-19.7 -402.5,25.3 -406.7,13.5"
         style="fill:#f8a18f;fill-opacity:1;fill-rule:nonzero;stroke:none"
         id="path254" /><path
         d="m 13047.3,11427.5 c -47.7,-75.3 203,-117.7 241.8,-145.4 -56.6,13.6 -267.1,81.6 -296.8,30.4 -14.6,-32 181,-66.2 216.1,-80 -35,1.4 -171.7,29.8 -183.7,-10.1 -1.6,-29.9 133.1,-49.2 172.9,-62.1 -10.4,-2.5 -135.6,15.9 -128.9,-10.1 4.7,-25.7 89.5,-51.6 132.4,-61.3 194.3,-43.8 407.7,-97.9 401.5,38.6 -4.7,101.9 -10.2,158.1 -230.2,353.1 -38,33.6 -53,-57.6 8.4,-140.5 -22.7,-11.9 -327.8,96.5 -333.5,87.4"
         style="fill:#f79885;fill-opacity:1;fill-rule:nonzero;stroke:none"
         id="path256" /><path
         d="m 11111.5,13304.8 c -95.6,-117.8 -38.5,-186.7 -85.9,-300.8 -44.2,-106.1 -147.4,-130.1 -217.2,-2.7 -122.9,224.3 149.6,424.8 308.7,367.4 0,0 48.6,2.8 -5.6,-63.9"
         style="fill:#f8a18f;fill-opacity:1;fill-rule:nonzero;stroke:none"
         id="path258" /><path
         d="m 13150.5,14386 36.2,-75.1 168.6,107.4 39.9,47.7 -244.7,-80"
         style="fill:#ffffff;fill-opacity:1;fill-rule:nonzero;stroke:none"
         id="path260" /><path
         d="m 12495.5,14025.7 c -339.8,108.4 -50.9,729 -30.3,734.9 20.5,6 -4.1,-90.2 60.4,-111.5 64.5,-21.4 90.3,49.6 244.1,-15.2 171,-72 147.2,-184.4 280.1,-227.3 88.5,-28.4 170.9,-2.3 184,-25 13.1,-22.5 -25.9,-139.3 -139.7,-251.5 -113.8,-112.3 -302.2,-199 -598.6,-104.4"
         style="fill:#ffffff;fill-opacity:1;fill-rule:nonzero;stroke:none"
         id="path262" /><path
         d="m 12717.5,14161.9 c 0,0 -148.2,85.7 -170.4,162.1 -22.3,76.3 -3.5,187.8 -3.5,187.8 0,0 9.7,-98.2 53.5,-176.8 43.9,-78.7 120.4,-173.1 120.4,-173.1"
         style="fill:#def4fd;fill-opacity:1;fill-rule:nonzero;stroke:none"
         id="path264" /><path
         d="m 13040.2,14270.8 c 0,0 77.3,8.3 98.9,22.6 21.5,14.2 75,54.1 75,54.1 l -23.9,10 5.7,24.8 c 0,0 -40.9,-28.7 -78.7,-28.1 -37.8,0.7 -90.8,18.6 -90.8,18.6 l 97.6,-49.8 -83.8,-52.2"
         style="fill:#def4fd;fill-opacity:1;fill-rule:nonzero;stroke:none"
         id="path266" /><path
         d="m 10618.3,13524.4 c -33.3,-52.5 -45.6,-112.7 -54.1,-176.7 -14.2,-107.3 -20.6,-247.6 38.7,-341.6 46.7,40.5 81.9,100.9 124.7,147.3 51.9,56.4 105.6,99.9 132.6,173.5 29,78.8 43.2,195.5 -4.1,270.2 -81.1,128.3 -184.1,12 -237.8,-72.7"
         style="fill:#4c2014;fill-opacity:1;fill-rule:nonzero;stroke:none"
         id="path268" /><path
         d="m 10848.3,12349.7 224.2,-41.5 48.6,263.2 -224.1,41.5 -48.7,-263.2"
         style="fill:#f8a18f;fill-opacity:1;fill-rule:nonzero;stroke:none"
         id="path270" /><path
         d="m 10859.7,12411.4 37.3,201.5 224.1,-41.5 -23.2,-125.8 c -26.9,-36.3 -162,-50.2 -238.2,-34.2"
         style="fill:#f57c73;fill-opacity:1;fill-rule:nonzero;stroke:none"
         id="path272" /><path
         d="m 9621.52,9169.3 c -57.43,-26.3 -137.38,-25.6 -205.33,-30.6 -87.07,-6.5 -152.48,20.1 -92.54,99.4 43.47,57.5 135.1,31.4 166.2,110 22.98,58.1 8.82,110.1 87.12,126.7 77.28,16.4 145.24,-1.2 132.46,-86 -9.78,-64.9 -20.34,-188.6 -87.91,-219.5"
         style="fill:#ffffff;fill-opacity:1;fill-rule:nonzero;stroke:none"
         id="path274" /><path
         d="m 9020.62,9377.2 c -57.46,-26.3 -137.39,-25.6 -205.38,-30.7 -86.99,-6.4 -152.48,20.2 -92.46,99.5 43.44,57.5 135.03,31.4 166.13,110 22.97,58.1 8.86,110.1 87.12,126.7 77.32,16.4 145.27,-1.2 132.5,-86.1 -9.81,-64.9 -20.34,-188.5 -87.91,-219.4"
         style="fill:#ffffff;fill-opacity:1;fill-rule:nonzero;stroke:none"
         id="path276" /><path
         d="m 9031.99,10272.1 c 151.47,255.9 201.31,292.5 310.62,407.9 124.39,131.4 198.47,213 358.18,301.8 146.97,81.7 253.36,121.3 388.51,220.4 80.1,58.8 167.7,96 211.9,137.3 l 822.4,-162.1 c 1.2,-112.2 -6.7,-289.1 -21.6,-395.3 -17.2,-123 -34.5,-224.1 -125.3,-300.8 -143.6,-121.4 -348.8,-99 -523.9,-157.5 -171.3,-57.3 -308,-136.9 -419.4,-285.5 -51.9,-69.1 -163.02,-517.5 -199.13,-596.4 -33.31,-72.9 -51.66,-152.8 -137.42,-165 -72.1,-10.2 -166.75,6.8 -233.37,41.8 -74.51,39.1 -24.09,122.6 -10.04,198.7 17.53,95 164.34,606.6 212.9,760.1 28.52,90 104.96,146.8 166.92,221.1 30.5,36.6 67.5,70.1 107.3,101.6 -28.19,-18 -54.86,-36 -73.05,-52.5 -100.19,-90.6 -145.56,-11.9 -352.73,-275.7 -63.3,-80.7 -259.97,-617.9 -322.13,-699.6 -58.01,-76.3 -107.95,-69.7 -194.94,-44.8 -81.3,23.3 -149.28,60.3 -153.52,119 -5.9,81.3 147.81,557.9 187.8,625.5"
         style="fill:#1e418f;fill-opacity:1;fill-rule:nonzero;stroke:none"
         id="path278" /><path
         d="m 11227.8,11458 c -21.4,-115.9 -40.2,-386.5 -168.8,-422.4 -68.5,-19.1 -154.6,27 -226,31.7 -87.5,5.8 -143.5,13.5 -224.5,41.2 -123.9,42.5 -306.6,77.6 -327.1,234.4 -19,145.6 38.3,352.8 77.3,488 104.9,362.7 276.8,652 702.7,522.7 342.7,-104.1 214,-637.8 166.4,-895.6"
         style="fill:#f8a18f;fill-opacity:1;fill-rule:nonzero;stroke:none"
         id="path280" /><path
         d="m 11369.7,12661.5 c -174.7,-182 -549.3,-269.4 -712.5,-9.3 -132.3,210.9 -98.8,446.6 -8.6,661.8 89.1,212.7 284.9,356 535.9,309.1 151.1,-28.1 293,-79.6 361.9,-223.1 82.9,-172.3 33.2,-202.7 -31,-468 -13.2,-54.6 -104.1,-227.1 -145.7,-270.5"
         style="fill:#f8a18f;fill-opacity:1;fill-rule:nonzero;stroke:none"
         id="path282" /><path
         d="m 11032.8,12939.2 c -4.3,-23.5 37.2,-50.9 92.8,-61.2 55.5,-10.3 104.1,0.5 108.5,24.1 4.3,23.5 -37.2,50.8 -92.8,61.1 -55.5,10.3 -104.1,-0.4 -108.5,-24"
         style="fill:#f68587;fill-opacity:1;fill-rule:nonzero;stroke:none"
         id="path284" /><path
         d="m 10664.3,13007.4 c -4.4,-23.6 28.4,-49.4 73.2,-57.6 44.8,-8.3 84.6,4.1 88.9,27.6 4.4,23.5 -28.4,49.3 -73.2,57.5 -44.8,8.3 -84.5,-4 -88.9,-27.5"
         style="fill:#f68587;fill-opacity:1;fill-rule:nonzero;stroke:none"
         id="path286" /><path
         d="m 10796.6,13184.8 c 19.3,-4.9 29.1,-35.6 21.7,-68.6 -7.3,-33.1 -29,-55.7 -48.4,-50.7 -19.4,4.9 -29.2,35.6 -21.8,68.7 7.4,32.9 29.1,55.7 48.5,50.6"
         style="fill:#724230;fill-opacity:1;fill-rule:nonzero;stroke:none"
         id="path288" /><path
         d="m 11137.2,13088.4 c 19.3,-4.9 29.2,-35.6 21.8,-68.7 -7.4,-32.9 -29.1,-55.6 -48.5,-50.7 -19.4,5 -29.2,35.8 -21.7,68.7 7.3,33 29,55.7 48.4,50.7"
         style="fill:#724230;fill-opacity:1;fill-rule:nonzero;stroke:none"
         id="path290" /><path
         d="m 10987.6,12830.5 c -49.3,-48.9 -170.6,-36.6 -180,48.4"
         style="fill:none;stroke:#f57c6e;stroke-width:16.6882;stroke-linecap:round;stroke-linejoin:round;stroke-miterlimit:10;stroke-dasharray:none;stroke-opacity:1"
         id="path292" /><path
         d="m 10941.2,12940.4 c -24.3,-28.8 -69.3,-13 -72.1,12.8"
         style="fill:none;stroke:#f57c6e;stroke-width:16.6882;stroke-linecap:round;stroke-linejoin:round;stroke-miterlimit:10;stroke-dasharray:none;stroke-opacity:1"
         id="path294" /><path
         d="m 10859.4,13208.9 c -30.4,18 -60.2,20.1 -83.6,21.1"
         style="fill:none;stroke:#724230;stroke-width:33.3764;stroke-linecap:round;stroke-linejoin:round;stroke-miterlimit:10;stroke-dasharray:none;stroke-opacity:1"
         id="path296" /><path
         d="m 11198.6,13101.3 c -28.4,21.1 -57.9,26.4 -81,29.8"
         style="fill:none;stroke:#724230;stroke-width:33.3764;stroke-linecap:round;stroke-linejoin:round;stroke-miterlimit:10;stroke-dasharray:none;stroke-opacity:1"
         id="path298" /><path
         d="m 11305.7,12779.2 c -12.4,-67.3 32,-131.9 99.3,-144.4 67.3,-12.4 132,32.1 144.4,99.4 12.4,67.3 -32,131.9 -99.3,144.3 -67.3,12.5 -132,-32 -144.4,-99.3"
         style="fill:#f8a18f;fill-opacity:1;fill-rule:nonzero;stroke:none"
         id="path300" /><path
         d="m 11589.1,13508 c 11.5,6.4 68.5,-103.4 74.1,-113.9 101.3,-187.1 82.4,-327 -113,-627.9 -11.4,49.3 -45,107.3 -105,94.8 -43.8,-9.2 -47.4,-65.2 -88.8,-73.9 2.3,0.5 16.1,302.2 1.4,332.8 -39.5,81.8 -97.2,138.7 -68.7,201.3 113.6,82.7 178.8,115.4 300,186.8"
         style="fill:#4c2014;fill-opacity:1;fill-rule:nonzero;stroke:none"
         id="path302" /><path
         d="m 10255.7,11925 c 23.4,-85.7 -50.4,-269.6 -76.4,-358.9 -32.7,-112 -83.2,-214.8 -175.3,-293.5 -183.16,-156.5 -402.45,-139.9 -455.62,-392.9 141.4,3.2 224.15,97.2 341.2,155.4 109.81,54.6 215.52,87.8 298.42,184.2 98.5,114.7 122.7,247.8 179,383.2 28.8,69.6 70.5,114.6 33.6,192.9 -27.5,58.5 -96.8,95 -144.9,129.6 v 0"
         style="fill:#f8a18f;fill-opacity:1;fill-rule:nonzero;stroke:none"
         id="path304" /><path
         d="m 11094.7,12343.6 c -75.9,-75 -218.9,-59.6 -260.4,42.4 -37.7,-2.1 -73.1,-6.9 -103.4,-14.1 -128.2,-30.5 -238.9,-153.2 -291.6,-268.7 -64.4,-140.8 -97.5,-288.4 -140.9,-438.1 -28,-96.5 -81.9,-297.4 -118.4,-458.6 39.7,-38 91.1,-29.6 137.2,-51.4 64.8,-30.5 143.1,-87 191,-139.4 73.1,-80 111.5,-195.2 228.9,-221.1 57.6,-12.6 98.1,-26.5 151.4,-52.1 42.8,-20.5 261.9,-69.8 296.9,-32.6 32.8,34.8 67.5,238.2 83.9,301.2 6.7,25.5 18.4,198.2 13.2,223.9 -16.2,78.4 5.2,206.6 -4.2,283.6 -18.7,153 -4.9,219.6 0.4,378.5 4.4,133.7 0,319.7 -114.7,407 0,0 -42.5,31 -69.3,39.5"
         style="fill:#1e2840;fill-opacity:1;fill-rule:nonzero;stroke:none"
         id="path306" /><path
         d="m 11335.5,11650.6 c 48.5,-165.7 140.2,-317.2 172.2,-487.8 21.4,-114.3 3.1,-227.1 -55.7,-327.5 -37.6,-64.1 -237.4,-176.3 -192.4,-320 9.2,-29.2 204.3,47.7 222.5,65.1 62.3,59.7 143,223.5 176.3,302.7 123.5,293.9 38.2,635.9 -64.7,924.4 -4.8,13.5 -32.7,109.2 -60.8,101.4 0,0 -252.5,-70.1 -197.4,-258.3"
         style="fill:#f8a18f;fill-opacity:1;fill-rule:nonzero;stroke:none"
         id="path308" /><path
         d="m 11252,12277.5 c -260.8,150.2 -220.8,-171.8 -187.6,-305.6 27.1,-108.9 47.6,-178.2 172.2,-396 56.6,-99 387.2,133.4 375.9,249 -12.2,125.8 -252,390.3 -360.5,452.6"
         style="fill:#1e2840;fill-opacity:1;fill-rule:nonzero;stroke:none"
         id="path310" /><path
         d="m 10242.7,12046.7 c -119.3,-123.1 131.1,-443.3 275.3,-365 106.8,57.9 190.4,204.2 236.4,305.6 29.8,65.6 56.2,139 63.4,207.6 6.4,60.8 -15.5,176 -97.5,176.4 -56.1,0.2 -150.5,-65.4 -194.5,-94.7 -99.7,-66.2 -199.6,-143.8 -283.1,-229.9"
         style="fill:#1e2840;fill-opacity:1;fill-rule:nonzero;stroke:none"
         id="path312" /><path
         d="m 11289.1,13321.2 c 0,0 -396.6,-34.2 -541.4,162.3 0,0 -100.1,131.6 5,332.8 0,0 30.2,-50.8 91.4,-56.5 0,0 24.2,131.3 182.7,192.5 0,0 43.8,-160.8 339.1,-215.4 0,0 255.4,-83.1 223.2,-228.9 0,0 23.9,-178.8 -300,-186.8"
         style="fill:#4c2014;fill-opacity:1;fill-rule:nonzero;stroke:none"
         id="path314" /><path
         d="m 11247.7,12795.4 42.4,-55.8 126.1,88.7 26.3,37.9 -194.8,-70.8"
         style="fill:#ffffff;fill-opacity:1;fill-rule:nonzero;stroke:none"
         id="path316" /><path
         d="m 10816.3,12493.2 c -288.1,65.2 -252.9,562.1 -236.4,567.5 16.5,5.4 38.8,-76.5 96.9,-90.2 58,-13.6 68.7,41.5 209.2,-1.6 156.3,-48 153.7,-134.6 273.1,-161.9 79.5,-18.1 145.2,5.1 159.9,-11.6 14.6,-16.6 -0.1,-107.1 -78.9,-197.3 -78.9,-90.1 -157.9,-165.2 -423.8,-104.9"
         style="fill:#ffffff;fill-opacity:1;fill-rule:nonzero;stroke:none"
         id="path318" /><path
         d="m 10915.9,12607.1 c 0,0 -139.1,59.3 -169.9,116.6 -30.9,57.3 -32.4,142.9 -32.4,142.9 0,0 23.6,-74.3 73.1,-132.5 49.5,-58.1 129.2,-127 129.2,-127"
         style="fill:#def4fd;fill-opacity:1;fill-rule:nonzero;stroke:none"
         id="path320" /><path
         d="m 11172.3,12703.1 c 0,0 64.2,9.5 80.3,21.2 16,11.8 55,44.3 55,44.3 l -21.8,6.7 1,19.1 c 0,0 -30.2,-23.5 -62.3,-24.6 -32.2,-1 -80,10.5 -80,10.5 l 90.6,-34 -62.8,-43.2"
         style="fill:#def4fd;fill-opacity:1;fill-rule:nonzero;stroke:none"
         id="path322" /><path
         d="M 2680.51,7998.4 H 9892 v 4892.9 H 2680.51 V 7998.4"
         style="fill:#1e2127;fill-opacity:1;fill-rule:nonzero;stroke:none"
         id="path324" /><path
         d="m 2680.51,7998.4 h -165.65 v 4892.9 h 165.65 V 7998.4"
         style="fill:#282d36;fill-opacity:1;fill-rule:nonzero;stroke:none"
         id="path326" /><path
         d="m 3606.15,9950.9 c 0,-114.7 79.01,-207.6 176.47,-207.6 h 5024.42 c 97.4,0 176.42,92.9 176.42,207.6 V 12197 c 0,114.7 -79.02,207.6 -176.42,207.6 H 3782.62 c -97.46,0 -176.47,-92.9 -176.47,-207.6 V 9950.9"
         style="fill:#16171b;fill-opacity:1;fill-rule:nonzero;stroke:none"
         id="path328" /><path
         d="m 7746.37,8424.1 c 0,-28.4 23,-51.4 51.38,-51.4 v 0 c 28.4,0 51.4,23 51.4,51.4 v 1042.5 c 0,28.3 -23,51.3 -51.4,51.3 v 0 c -28.38,0 -51.38,-23 -51.38,-51.3 V 8424.1"
         style="fill:#17181d;fill-opacity:1;fill-rule:nonzero;stroke:none"
         id="path330" /><path
         d="m 7579.38,8424.1 c 0,-28.4 23,-51.4 51.35,-51.4 v 0 c 28.43,0 51.38,23 51.38,51.4 v 1042.5 c 0,28.3 -22.95,51.3 -51.38,51.3 v 0 c -28.35,0 -51.35,-23 -51.35,-51.3 V 8424.1"
         style="fill:#17181d;fill-opacity:1;fill-rule:nonzero;stroke:none"
         id="path332" /><path
         d="m 7412.4,8424.1 c 0,-28.4 23.02,-51.4 51.35,-51.4 v 0 c 28.43,0 51.4,23 51.4,51.4 v 1042.5 c 0,28.3 -22.97,51.3 -51.4,51.3 v 0 c -28.33,0 -51.35,-23 -51.35,-51.3 V 8424.1"
         style="fill:#17181d;fill-opacity:1;fill-rule:nonzero;stroke:none"
         id="path334" /><path
         d="m 7245.41,8424.1 c 0,-28.4 23.01,-51.4 51.35,-51.4 v 0 c 28.4,0 51.4,23 51.4,51.4 v 1042.5 c 0,28.3 -23,51.3 -51.4,51.3 v 0 c -28.34,0 -51.35,-23 -51.35,-51.3 V 8424.1"
         style="fill:#17181d;fill-opacity:1;fill-rule:nonzero;stroke:none"
         id="path336" /><path
         d="m 7078.39,8424.1 c 0,-28.4 23.07,-51.4 51.35,-51.4 v 0 c 28.43,0 51.4,23 51.4,51.4 v 1042.5 c 0,28.3 -22.97,51.3 -51.4,51.3 v 0 c -28.28,0 -51.35,-23 -51.35,-51.3 V 8424.1"
         style="fill:#17181d;fill-opacity:1;fill-rule:nonzero;stroke:none"
         id="path338" /><path
         d="m 6911.38,8424.1 c 0,-28.4 23.04,-51.4 51.38,-51.4 v 0 c 28.42,0 51.42,23 51.42,51.4 v 1042.5 c 0,28.3 -23,51.3 -51.42,51.3 v 0 c -28.34,0 -51.38,-23 -51.38,-51.3 V 8424.1"
         style="fill:#17181d;fill-opacity:1;fill-rule:nonzero;stroke:none"
         id="path340" /><path
         d="m 6744.41,8424.1 c 0,-28.4 22.97,-51.4 51.35,-51.4 v 0 c 28.41,0 51.43,23 51.43,51.4 v 1042.5 c 0,28.3 -23.02,51.3 -51.43,51.3 v 0 c -28.38,0 -51.35,-23 -51.35,-51.3 V 8424.1"
         style="fill:#17181d;fill-opacity:1;fill-rule:nonzero;stroke:none"
         id="path342" /><path
         d="m 6577.35,8424.1 c 0,-28.4 23.07,-51.4 51.42,-51.4 v 0 c 28.41,0 51.38,23 51.38,51.4 v 1042.5 c 0,28.3 -22.97,51.3 -51.38,51.3 v 0 c -28.35,0 -51.42,-23 -51.42,-51.3 V 8424.1"
         style="fill:#17181d;fill-opacity:1;fill-rule:nonzero;stroke:none"
         id="path344" /><path
         d="m 6410.39,8424.1 c 0,-28.4 23.04,-51.4 51.4,-51.4 v 0 c 28.4,0 51.39,23 51.39,51.4 v 1042.5 c 0,28.3 -22.99,51.3 -51.39,51.3 v 0 c -28.36,0 -51.4,-23 -51.4,-51.3 V 8424.1"
         style="fill:#17181d;fill-opacity:1;fill-rule:nonzero;stroke:none"
         id="path346" /><path
         d="m 6243.42,8424.1 c 0,-28.4 22.99,-51.4 51.4,-51.4 v 0 c 28.38,0 51.35,23 51.35,51.4 v 1042.5 c 0,28.3 -22.97,51.3 -51.35,51.3 v 0 c -28.41,0 -51.4,-23 -51.4,-51.3 V 8424.1"
         style="fill:#17181d;fill-opacity:1;fill-rule:nonzero;stroke:none"
         id="path348" /><path
         d="m 6076.36,8424.1 c 0,-28.4 23.09,-51.4 51.42,-51.4 v 0 c 28.43,0 51.38,23 51.38,51.4 v 1042.5 c 0,28.3 -22.95,51.3 -51.38,51.3 v 0 c -28.33,0 -51.42,-23 -51.42,-51.3 V 8424.1"
         style="fill:#17181d;fill-opacity:1;fill-rule:nonzero;stroke:none"
         id="path350" /><path
         d="m 5909.39,8424.1 c 0,-28.4 23.07,-51.4 51.4,-51.4 v 0 c 28.46,0 51.4,23 51.4,51.4 v 1042.5 c 0,28.3 -22.94,51.3 -51.4,51.3 v 0 c -28.33,0 -51.4,-23 -51.4,-51.3 V 8424.1"
         style="fill:#17181d;fill-opacity:1;fill-rule:nonzero;stroke:none"
         id="path352" /><path
         d="m 5742.4,8424.1 c 0,-28.4 23.02,-51.4 51.43,-51.4 v 0 c 28.37,0 51.35,23 51.35,51.4 v 1042.5 c 0,28.3 -22.98,51.3 -51.35,51.3 v 0 c -28.41,0 -51.43,-23 -51.43,-51.3 V 8424.1"
         style="fill:#17181d;fill-opacity:1;fill-rule:nonzero;stroke:none"
         id="path354" /><path
         d="m 5575.41,8424.1 c 0,-28.4 23.05,-51.4 51.38,-51.4 v 0 c 28.43,0 51.4,23 51.4,51.4 v 1042.5 c 0,28.3 -22.97,51.3 -51.4,51.3 v 0 c -28.33,0 -51.38,-23 -51.38,-51.3 V 8424.1"
         style="fill:#17181d;fill-opacity:1;fill-rule:nonzero;stroke:none"
         id="path356" /><path
         d="m 5408.45,8424.1 c 0,-28.4 23.02,-51.4 51.35,-51.4 v 0 c 28.45,0 51.4,23 51.4,51.4 v 1042.5 c 0,28.3 -22.95,51.3 -51.4,51.3 v 0 c -28.33,0 -51.35,-23 -51.35,-51.3 V 8424.1"
         style="fill:#17181d;fill-opacity:1;fill-rule:nonzero;stroke:none"
         id="path358" /><path
         d="m 5241.43,8424.1 c 0,-28.4 23.02,-51.4 51.4,-51.4 v 0 c 28.38,0 51.38,23 51.38,51.4 v 1042.5 c 0,28.3 -23,51.3 -51.38,51.3 v 0 c -28.38,0 -51.4,-23 -51.4,-51.3 V 8424.1"
         style="fill:#17181d;fill-opacity:1;fill-rule:nonzero;stroke:none"
         id="path360" /><path
         d="m 5074.47,8424.1 c 0,-28.4 23,-51.4 51.35,-51.4 v 0 c 28.38,0 51.37,23 51.37,51.4 v 1042.5 c 0,28.3 -22.99,51.3 -51.37,51.3 v 0 c -28.35,0 -51.35,-23 -51.35,-51.3 V 8424.1"
         style="fill:#17181d;fill-opacity:1;fill-rule:nonzero;stroke:none"
         id="path362" /><path
         d="m 4907.48,8424.1 c 0,-28.4 22.99,-51.4 51.38,-51.4 v 0 c 28.37,0 51.39,23 51.39,51.4 v 1042.5 c 0,28.3 -23.02,51.3 -51.39,51.3 v 0 c -28.39,0 -51.38,-23 -51.38,-51.3 V 8424.1"
         style="fill:#17181d;fill-opacity:1;fill-rule:nonzero;stroke:none"
         id="path364" /><path
         d="m 4740.44,8424.1 c 0,-28.4 23.04,-51.4 51.43,-51.4 v 0 c 28.37,0 51.37,23 51.37,51.4 v 1042.5 c 0,28.3 -23,51.3 -51.37,51.3 v 0 c -28.39,0 -51.43,-23 -51.43,-51.3 V 8424.1"
         style="fill:#17181d;fill-opacity:1;fill-rule:nonzero;stroke:none"
         id="path366" /><path
         d="m 4533.84,8661.8 v 813.7 H 2985.19 v -813.7 h 1548.65"
         style="fill:#16171b;fill-opacity:1;fill-rule:nonzero;stroke:none"
         id="path368" /><path
         d="m 3479.5,9138.9 c 51.11,0 92.5,41.4 92.5,92.4 0,51 -41.39,92.4 -92.5,92.4 -50.96,0 -92.39,-41.4 -92.39,-92.4 0,-51 41.43,-92.4 92.39,-92.4"
         style="fill:#57c8e1;fill-opacity:1;fill-rule:nonzero;stroke:none"
         id="path370" /><path
         d="m 3479.5,9169.4 c 34.23,0 62,27.8 62,61.9 0,34.3 -27.77,61.9 -62,61.9 -34.17,0 -61.87,-27.6 -61.87,-61.9 0,-34.1 27.7,-61.9 61.87,-61.9"
         style="fill:#322f30;fill-opacity:1;fill-rule:nonzero;stroke:none"
         id="path372" /><path
         d="m 3226.94,9138.9 c 51.03,0 92.44,41.4 92.44,92.5 0,51 -41.41,92.3 -92.44,92.3 -51.06,0 -92.47,-41.3 -92.47,-92.3 0,-51.1 41.41,-92.5 92.47,-92.5"
         style="fill:#d82930;fill-opacity:1;fill-rule:nonzero;stroke:none"
         id="path374" /><path
         d="m 3226.94,9169.4 c 34.15,0 61.92,27.8 61.92,62 0,34.2 -27.77,61.8 -61.92,61.8 -34.18,0 -61.95,-27.6 -61.95,-61.8 0,-34.2 27.77,-62 61.95,-62"
         style="fill:#322f30;fill-opacity:1;fill-rule:nonzero;stroke:none"
         id="path376" /><path
         d="m 3753.17,9138.9 c 51.11,0 92.45,41.4 92.45,92.4 0,51.1 -41.34,92.4 -92.45,92.4 -51.04,0 -92.4,-41.3 -92.4,-92.4 0,-51 41.36,-92.4 92.4,-92.4"
         style="fill:#ffffff;fill-opacity:1;fill-rule:nonzero;stroke:none"
         id="path378" /><path
         d="m 3753.17,9169.4 c 34.27,0 61.97,27.8 61.97,61.9 0,34.3 -27.7,61.9 -61.97,61.9 -34.18,0 -61.9,-27.6 -61.9,-61.9 0,-34.1 27.72,-61.9 61.9,-61.9"
         style="fill:#322f30;fill-opacity:1;fill-rule:nonzero;stroke:none"
         id="path380" /><path
         d="m 4018.47,9138.9 c 51.07,0 92.45,41.4 92.45,92.4 0,51 -41.38,92.4 -92.45,92.4 -51.03,0 -92.44,-41.4 -92.44,-92.4 0,-51 41.41,-92.4 92.44,-92.4"
         style="fill:#f9a72b;fill-opacity:1;fill-rule:nonzero;stroke:none"
         id="path382" /><path
         d="m 4018.47,9169.4 c 34.26,0 61.95,27.8 61.95,61.9 0,34.3 -27.69,61.9 -61.95,61.9 -34.22,0 -61.92,-27.6 -61.92,-61.9 0,-34.1 27.7,-61.9 61.92,-61.9"
         style="fill:#322f30;fill-opacity:1;fill-rule:nonzero;stroke:none"
         id="path384" /><path
         d="m 4292.11,9138.9 c 51.14,0 92.48,41.4 92.48,92.4 0,51.1 -41.34,92.4 -92.48,92.4 -51.05,0 -92.42,-41.3 -92.42,-92.4 0,-51 41.37,-92.4 92.42,-92.4"
         style="fill:#80cc28;fill-opacity:1;fill-rule:nonzero;stroke:none"
         id="path386" /><path
         d="m 4292.11,9169.4 c 34.25,0 61.98,27.8 61.98,61.9 0,34.3 -27.73,61.9 -61.98,61.9 -34.18,0 -61.89,-27.6 -61.89,-61.9 0,-34.1 27.71,-61.9 61.89,-61.9"
         style="fill:#322f30;fill-opacity:1;fill-rule:nonzero;stroke:none"
         id="path388" /><path
         d="m 3997.16,8875.9 h 308.3 v 124.2 h -308.3 v -124.2"
         style="fill:#0e0d0f;fill-opacity:1;fill-rule:nonzero;stroke:none"
         id="path390" /><path
         d="m 3603.26,8875.9 h 308.3 v 124.2 h -308.3 v -124.2"
         style="fill:#0e0d0f;fill-opacity:1;fill-rule:nonzero;stroke:none"
         id="path392" /><path
         d="m 3466.23,9008.6 h -252.67 v -158.3 h 68.53 v -36.5 h 102.77 v 36.5 h 81.37 v 158.3"
         style="fill:#0e0d0f;fill-opacity:1;fill-rule:nonzero;stroke:none"
         id="path394" /><path
         d="m 3612.17,7651.3 c 0,0 1374.51,-102.7 1824.12,89.9 0,0 238.75,55.2 436.76,274.1 h 479.6 c 198,-218.9 436.73,-274.1 436.73,-274.1 449.64,-192.6 1824.1,-89.9 1824.1,-89.9 192.71,0 192.71,-115.6 192.71,-115.6 H 3419.51 c 0,0 0,115.6 192.66,115.6"
         style="fill:#15161a;fill-opacity:1;fill-rule:nonzero;stroke:none"
         id="path396" /><path
         d="m 6108.1,7998.6 -237.2,16.7 111.18,612.3 c 0,0 21.41,122.1 126.02,127.9 v 0.6 c 1.27,0 2.36,-0.3 3.7,-0.3 1.22,0 2.41,0.3 3.73,0.3 v -0.6 c 104.48,-5.8 125.94,-127.9 125.94,-127.9 l 111.18,-612.3 -237.12,-16.7 v -0.4 l -3.73,0.2 -3.7,-0.2 v 0.4"
         style="fill:#15161a;fill-opacity:1;fill-rule:nonzero;stroke:none"
         id="path398" /><path
         d="M 2432.62,7166.9 H 10840.3 V 6099.2 H 2432.62 Z m -408.54,372.3 V 5726.8 H 11248.9 V 7539.2 H 2024.08"
         style="fill:#985a4a;fill-opacity:1;fill-rule:nonzero;stroke:none"
         id="path400" /><path
         d="m 9861.6,6099.2 h 978.7 V 7166.9 H 9861.6 V 6099.2"
         style="fill:#794739;fill-opacity:1;fill-rule:nonzero;stroke:none"
         id="path402" /><path
         d="m 1158,5726.8 h 866.08 V 7539.2 H 1158 V 5726.8"
         style="fill:#794739;fill-opacity:1;fill-rule:nonzero;stroke:none"
         id="path404" /></g></g></svg>
