<?xml version="1.0" encoding="utf-8"?>
<!-- Generator: Adobe Illustrator 19.0.0, SVG Export Plug-In . SVG Version: 6.00 Build 0)  -->
<svg version="1.1" id="Layer_1" xmlns="http://www.w3.org/2000/svg" xmlns:xlink="http://www.w3.org/1999/xlink" x="0px" y="0px"
	 width="1400px" height="980px" viewBox="0 0 1400 980" enable-background="new 0 0 1400 980" xml:space="preserve">
<g id="XMLID_1_">
	<rect id="XMLID_110_" fill-rule="evenodd" clip-rule="evenodd" fill="#ADAFB2" width="1400" height="980"/>
	<rect id="XMLID_109_" y="678.2" fill-rule="evenodd" clip-rule="evenodd" fill="#616264" width="1400" height="301.8"/>
	<rect id="XMLID_108_" x="446.9" y="237.3" fill-rule="evenodd" clip-rule="evenodd" fill="#252122" width="506.1" height="294"/>
	<rect id="XMLID_107_" x="460.6" y="250.9" fill-rule="evenodd" clip-rule="evenodd" fill="#00C2F3" width="478.9" height="266.7"/>
	<polygon id="XMLID_106_" fill-rule="evenodd" clip-rule="evenodd" fill="#00AEDA" points="939.3,250.9 460.6,250.9 939.3,517.6 	
		"/>
	<path id="XMLID_105_" fill-rule="evenodd" clip-rule="evenodd" fill="#5A5B5F" d="M906.2,524.3c0-0.9-0.7-1.6-1.6-1.6
		c-0.9,0-1.6,0.7-1.6,1.6c0,0.9,0.7,1.6,1.6,1.6C905.5,525.9,906.2,525.2,906.2,524.3"/>
	<path id="XMLID_104_" fill-rule="evenodd" clip-rule="evenodd" fill="#5A5B5F" d="M913.5,524.3c0-0.9-0.7-1.6-1.6-1.6
		c-0.9,0-1.6,0.7-1.6,1.6c0,0.9,0.7,1.6,1.6,1.6C912.8,525.9,913.5,525.2,913.5,524.3"/>
	<path id="XMLID_103_" fill-rule="evenodd" clip-rule="evenodd" fill="#5A5B5F" d="M920.7,524.3c0-0.9-0.7-1.6-1.6-1.6
		c-0.9,0-1.6,0.7-1.6,1.6c0,0.9,0.7,1.6,1.6,1.6C920,525.9,920.7,525.2,920.7,524.3"/>
	<path id="XMLID_102_" fill-rule="evenodd" clip-rule="evenodd" fill="#5A5B5F" d="M927.8,524.3c0-0.9-0.7-1.6-1.6-1.6
		c-0.9,0-1.6,0.7-1.6,1.6c0,0.9,0.7,1.6,1.6,1.6C927.1,525.9,927.8,525.2,927.8,524.3"/>
	<path id="XMLID_101_" fill-rule="evenodd" clip-rule="evenodd" fill="#5A5B5F" d="M935.1,524.3c0-0.9-0.7-1.6-1.6-1.6
		c-0.9,0-1.6,0.7-1.6,1.6c0,0.9,0.7,1.6,1.6,1.6C934.4,525.9,935.1,525.2,935.1,524.3"/>
	<rect id="XMLID_100_" x="74.3" y="584.2" fill-rule="evenodd" clip-rule="evenodd" fill="#D39B54" width="1251.4" height="170.8"/>
	<rect id="XMLID_99_" x="74.3" y="584.2" fill-rule="evenodd" clip-rule="evenodd" fill="#FFFFFF" width="939.3" height="133.3"/>
	<rect id="XMLID_98_" x="1013.5" y="618.9" fill-rule="evenodd" clip-rule="evenodd" fill="#A87541" width="275.8" height="95.9"/>
	<rect id="XMLID_97_" x="74.3" y="717.6" fill-rule="evenodd" clip-rule="evenodd" fill="#D6AC59" width="939.3" height="10"/>
	<rect id="XMLID_96_" x="385.7" y="591" fill-rule="evenodd" clip-rule="evenodd" fill="#CFD0D1" width="5.1" height="119.8"/>
	<rect id="XMLID_95_" x="697.1" y="591" fill-rule="evenodd" clip-rule="evenodd" fill="#CFD0D1" width="5.1" height="119.8"/>
	<rect id="XMLID_94_" x="275.6" y="572.6" fill-rule="evenodd" clip-rule="evenodd" fill="#3B393C" width="18.7" height="11.7"/>
	<rect id="XMLID_93_" x="361.4" y="572.6" fill-rule="evenodd" clip-rule="evenodd" fill="#3B393C" width="18.7" height="11.7"/>
	<rect id="XMLID_92_" x="275.6" y="579.7" fill-rule="evenodd" clip-rule="evenodd" fill="#353334" width="18.7" height="1.6"/>
	<rect id="XMLID_91_" x="361.4" y="579.7" fill-rule="evenodd" clip-rule="evenodd" fill="#353334" width="18.7" height="1.6"/>
	<rect id="XMLID_90_" x="269.3" y="411.7" fill-rule="evenodd" clip-rule="evenodd" fill="#252122" width="118.6" height="163.4"/>
	<path id="XMLID_89_" fill-rule="evenodd" clip-rule="evenodd" fill="#353334" d="M328.5,474.1c14.8,0,27.1-12.1,27.1-27.2
		c0-14.9-12.1-27.2-27.1-27.2c-14.8,0-27.1,12.1-27.1,27.2C301.4,461.9,313.5,474.1,328.5,474.1"/>
	<path id="XMLID_88_" fill-rule="evenodd" clip-rule="evenodd" fill="#3B393C" d="M328.5,471.6c13.5,0,24.6-11,24.6-24.7
		c0-13.5-10.9-24.7-24.6-24.7c-13.5,0-24.6,11-24.6,24.7C303.9,460.6,314.9,471.6,328.5,471.6"/>
	<path id="XMLID_87_" fill-rule="evenodd" clip-rule="evenodd" fill="#353334" d="M328.5,460.1c7.1,0,13-5.9,13-13
		c0-7.1-5.9-13-13-13c-7.1,0-13,5.9-13,13C315.3,454.2,321.2,460.1,328.5,460.1"/>
	<path id="XMLID_86_" fill-rule="evenodd" clip-rule="evenodd" fill="#353334" d="M328.5,567.2c24.2,0,44-19.9,44-44.2
		s-19.8-44.2-44-44.2c-24.2,0-44,19.9-44,44.2S304.4,567.2,328.5,567.2"/>
	<path id="XMLID_85_" fill-rule="evenodd" clip-rule="evenodd" fill="#3B393C" d="M328.5,563.3c22.1,0,39.9-18.1,39.9-40
		c0-22.2-18-40-39.9-40c-22.1,0-39.9,18.1-39.9,40C288.6,545.2,306.7,563.3,328.5,563.3"/>
	<path id="XMLID_84_" fill-rule="evenodd" clip-rule="evenodd" fill="#353334" d="M328.5,544.3c11.6,0,21.2-9.6,21.2-21.3
		c0-11.7-9.6-21.3-21.2-21.3c-11.6,0-21.2,9.6-21.2,21.3C307.6,534.7,316.9,544.3,328.5,544.3"/>
	<rect id="XMLID_83_" x="1018.6" y="572.6" fill-rule="evenodd" clip-rule="evenodd" fill="#3B393C" width="18.7" height="11.7"/>
	<rect id="XMLID_82_" x="1104.3" y="572.6" fill-rule="evenodd" clip-rule="evenodd" fill="#3B393C" width="18.7" height="11.7"/>
	<rect id="XMLID_81_" x="1018.6" y="579.7" fill-rule="evenodd" clip-rule="evenodd" fill="#353334" width="18.7" height="1.6"/>
	<rect id="XMLID_80_" x="1104.3" y="579.7" fill-rule="evenodd" clip-rule="evenodd" fill="#353334" width="18.7" height="1.6"/>
	<rect id="XMLID_79_" x="1012.2" y="411.7" fill-rule="evenodd" clip-rule="evenodd" fill="#252122" width="118.6" height="163.4"/>
	<path id="XMLID_78_" fill-rule="evenodd" clip-rule="evenodd" fill="#353334" d="M1071.5,474.1c14.8,0,27.1-12.1,27.1-27.2
		c0-14.9-12.1-27.2-27.1-27.2c-14.8,0-27.1,12.1-27.1,27.2C1044.3,461.9,1056.4,474.1,1071.5,474.1"/>
	<path id="XMLID_77_" fill-rule="evenodd" clip-rule="evenodd" fill="#3B393C" d="M1071.5,471.6c13.5,0,24.6-11,24.6-24.7
		c0-13.5-10.9-24.7-24.6-24.7c-13.5,0-24.6,11-24.6,24.7C1046.8,460.6,1057.8,471.6,1071.5,471.6"/>
	<path id="XMLID_76_" fill-rule="evenodd" clip-rule="evenodd" fill="#353334" d="M1071.5,460.1c7.1,0,13-5.9,13-13
		c0-7.1-5.9-13-13-13c-7.1,0-13,5.9-13,13C1058.2,454.2,1064.2,460.1,1071.5,460.1"/>
	<path id="XMLID_75_" fill-rule="evenodd" clip-rule="evenodd" fill="#353334" d="M1071.5,567.2c24.2,0,44-19.9,44-44.2
		s-19.8-44.2-44-44.2c-24.2,0-44,19.9-44,44.2S1047.3,567.2,1071.5,567.2"/>
	<path id="XMLID_74_" fill-rule="evenodd" clip-rule="evenodd" fill="#3B393C" d="M1071.5,563.3c22.1,0,39.9-18.1,39.9-40
		c0-22.2-18-40-39.9-40c-22.1,0-39.9,18.1-39.9,40C1031.6,545.2,1049.6,563.3,1071.5,563.3"/>
	<path id="XMLID_73_" fill-rule="evenodd" clip-rule="evenodd" fill="#353334" d="M1071.5,544.3c11.6,0,21.2-9.6,21.2-21.3
		c0-11.7-9.6-21.3-21.2-21.3c-11.6,0-21.2,9.6-21.2,21.3C1050.5,534.7,1059.8,544.3,1071.5,544.3"/>
	<path id="XMLID_72_" fill-rule="evenodd" clip-rule="evenodd" fill="#FFFFFF" d="M1245.4,699.2h-85.6V712h85.6
		c3.5,0,6.4-2.9,6.4-6.4C1251.8,702.1,1248.9,699.2,1245.4,699.2"/>
	<path id="XMLID_71_" fill-rule="evenodd" clip-rule="evenodd" fill="#BC527F" d="M1246.1,696.8h-89.5v2.6l89.3,0
		c3.5,0,6.4,2.9,6.4,6.4s-2.9,6.4-6.4,6.4l-89.3,0v2.6h89.5c4.8,0,9-4,9-9C1255.1,700.7,1250.9,696.8,1246.1,696.8"/>
	<path id="XMLID_70_" fill-rule="evenodd" clip-rule="evenodd" fill="#FFFFFF" d="M1169.2,678.5h80.7v15h-80.7
		c-4.2,0-7.5-3.3-7.5-7.5C1161.7,682,1165.2,678.5,1169.2,678.5"/>
	<path id="XMLID_69_" fill-rule="evenodd" clip-rule="evenodd" fill="#543B21" d="M1168.4,675.4h85.3v3.1h-84.9
		c-4.2,0-7.5,3.3-7.5,7.5s3.3,7.5,7.5,7.5h84.9v3.1h-85.3c-5.7,0-10.5-4.8-10.5-10.6S1162.7,675.4,1168.4,675.4"/>
	<path id="XMLID_68_" fill-rule="evenodd" clip-rule="evenodd" fill="#FFFFFF" d="M1245.4,660.2h-85.6V673h85.6
		c3.5,0,6.4-2.9,6.4-6.4C1251.8,663.1,1248.9,660.2,1245.4,660.2"/>
	<path id="XMLID_67_" fill-rule="evenodd" clip-rule="evenodd" fill="#5E91B0" d="M1246.1,657.6h-89.5v2.6h89.3
		c3.5,0,6.4,2.9,6.4,6.4c0,3.5-2.9,6.4-6.4,6.4l-89.3,0v2.6h89.5c4.8,0,9-4,9-9C1255.1,661.5,1250.9,657.6,1246.1,657.6"/>
	<path id="XMLID_66_" fill-rule="evenodd" clip-rule="evenodd" fill="#FFFFFF" d="M1242.9,655.6h-79v-9.7h79c2.6,0,4.8,2.2,4.8,4.8
		C1247.7,653.4,1245.5,655.6,1242.9,655.6"/>
	<path id="XMLID_65_" fill-rule="evenodd" clip-rule="evenodd" fill="#D19F48" d="M1243.5,657.6h-82.1v-2h81.6
		c2.6,0,4.8-2.2,4.8-4.8c0-2.6-2.2-4.8-4.8-4.8l-81.6,0v-2h82.1c3.7,0,6.8,3.1,6.8,6.8C1250.3,654.5,1247.2,657.6,1243.5,657.6"/>
	<path id="XMLID_64_" fill-rule="evenodd" clip-rule="evenodd" fill="#FFFFFF" d="M1239.3,641.3H1166v-12.5h73.3
		c3.5,0,6.4,2.9,6.4,6.4C1245.7,638.7,1242.8,641.3,1239.3,641.3"/>
	<path id="XMLID_63_" fill-rule="evenodd" clip-rule="evenodd" fill="#BC527F" d="M1240.1,643.9h-77.2v-2.6h76.8
		c3.5,0,6.4-2.9,6.4-6.4s-2.9-6.4-6.4-6.4l-76.8,0v-2.6h77.2c4.8,0,8.8,4,8.8,8.8C1248.8,640,1244.9,643.9,1240.1,643.9"/>
	<polygon id="XMLID_62_" fill-rule="evenodd" clip-rule="evenodd" fill="#FFFFFF" points="1210.9,662 1200.8,662 1200.8,671.7 
		1205.8,667.7 1210.9,671.7 	"/>
	<g>
		<path id="XMLID_61_" fill-rule="evenodd" clip-rule="evenodd" fill="#3D2D3E" d="M137.6,578.1h66.8c1,0,1.7,0.8,1.7,1.8v2.6
			c0,1-0.8,1.8-1.7,1.8h-66.8c-1,0-1.7-0.8-1.7-1.8v-2.6C135.9,578.9,136.7,578.1,137.6,578.1"/>
		<g>
			<rect id="XMLID_60_" x="167.1" y="404.7" fill-rule="evenodd" clip-rule="evenodd" fill="#634965" width="7.8" height="173.5"/>
			<rect id="XMLID_59_" x="171.2" y="404.7" fill-rule="evenodd" clip-rule="evenodd" fill="#3D2D3E" width="3.7" height="173.5"/>
			<polygon id="XMLID_58_" fill-rule="evenodd" clip-rule="evenodd" fill="#634965" points="113.1,422.1 228.9,422.1 218.2,355.7 
				122.9,355.7 			"/>
			<polygon id="XMLID_57_" fill-rule="evenodd" clip-rule="evenodd" fill="#3D2D3E" points="152.7,422.1 228.9,422.1 218.2,355.7 
				155.5,355.7 			"/>
			<polygon id="XMLID_56_" fill-rule="evenodd" clip-rule="evenodd" fill="#503B52" points="152.7,422.1 190.8,422.1 186.2,355.7 
				155.5,355.7 			"/>
		</g>
	</g>
	<polygon id="XMLID_55_" fill-rule="evenodd" clip-rule="evenodd" fill="#F3C09B" points="551,774.5 646.7,870.5 637.5,879.7 
		583.6,894.2 507.7,818 	"/>
	<polygon id="XMLID_54_" fill-rule="evenodd" clip-rule="evenodd" fill="#ECC1A6" points="669.6,807.9 591.2,729.3 341.4,980 
		498.2,980 	"/>
	<polygon id="XMLID_53_" fill-rule="evenodd" clip-rule="evenodd" fill="#FFFFFF" points="507.1,980 577.4,909.5 490,821.9 
		332.4,980 	"/>
	<polygon id="XMLID_52_" fill-rule="evenodd" clip-rule="evenodd" fill="#283962" points="516.1,980 560.3,935.6 464,838.9 
		323.4,980 	"/>
	<path id="XMLID_51_" fill-rule="evenodd" clip-rule="evenodd" fill="#353839" d="M559.2,912.9c-1.9,1.9-4.9,1.9-6.7,0
		c-1.9-1.9-1.9-4.9,0-6.8c1.9-1.9,4.9-1.9,6.7,0C561.1,908,561.1,911,559.2,912.9"/>
	<polygon id="XMLID_50_" fill-rule="evenodd" clip-rule="evenodd" fill="#273F6E" points="512.2,887.3 464,838.9 323.4,980 
		419.8,980 	"/>
	<path id="XMLID_49_" fill-rule="evenodd" clip-rule="evenodd" fill="#FFFFFF" d="M534.2,943.4c-2.7,2.7-7.2,2.7-9.9,0
		c-2.7-2.7-2.7-7.2,0-9.9c2.7-2.7,7.2-2.7,9.9,0C536.9,936.2,536.9,940.7,534.2,943.4"/>
	<path id="XMLID_48_" fill-rule="evenodd" clip-rule="evenodd" fill="#FFFFFF" d="M511.2,967.3c-2.7,2.7-7.2,2.7-9.9,0
		c-2.7-2.7-2.7-7.2,0-9.9c2.7-2.7,7.2-2.7,9.9,0C513.9,960.1,513.9,964.6,511.2,967.3"/>
	<path id="XMLID_47_" fill-rule="evenodd" clip-rule="evenodd" fill="#312D2F" d="M619.8,588.7l73,14.9c9.9,2,16.4,11.8,14.4,21.8
		l-53.6,265.6c-2,10-11.8,16.5-21.7,14.5l-73-14.9c-9.9-2-16.4-11.8-14.4-21.8l53.6-265.6C600.1,593.1,609.9,586.6,619.8,588.7"/>
	<path id="XMLID_46_" fill-rule="evenodd" clip-rule="evenodd" fill="#000100" d="M629.9,590.7l52.8,10.7l-1.5,7.5
		c-0.7,3.4-4,5.6-7.4,4.9l-40.5-8.2c-3.4-0.7-5.6-4-4.9-7.4L629.9,590.7z"/>
	<path id="XMLID_45_" fill-rule="evenodd" clip-rule="evenodd" fill="#909299" d="M618.9,655.4l-10.8-2.2c-3.5-0.7-5.8-4.2-5.1-7.7
		c0.7-3.5,4.1-5.8,7.6-5.1l10.8,2.2c3.5,0.7,5.8,4.2,5.1,7.7v0C625.9,653.8,622.4,656.1,618.9,655.4"/>
	<path id="XMLID_44_" fill-rule="evenodd" clip-rule="evenodd" fill="#909299" d="M649.8,661.6l-10.8-2.2c-3.5-0.7-5.8-4.2-5.1-7.7
		l0,0c0.7-3.5,4.1-5.8,7.6-5.1l10.8,2.2c3.5,0.7,5.8,4.2,5.1,7.7v0C656.7,660,653.3,662.3,649.8,661.6"/>
	<path id="XMLID_43_" fill-rule="evenodd" clip-rule="evenodd" fill="#909299" d="M680.7,667.9l-10.8-2.2c-3.5-0.7-5.8-4.2-5.1-7.7
		l0,0c0.7-3.5,4.1-5.8,7.6-5.1l10.8,2.2c3.5,0.7,5.8,4.2,5.1,7.7l0,0C687.6,666.3,684.2,668.6,680.7,667.9"/>
	<path id="XMLID_42_" fill-rule="evenodd" clip-rule="evenodd" fill="#909299" d="M614.7,676.3l-10.8-2.2c-3.5-0.7-5.8-4.2-5.1-7.7
		l0,0c0.7-3.5,4.1-5.8,7.6-5.1l10.8,2.2c3.5,0.7,5.8,4.2,5.1,7.7l0,0C621.6,674.7,618.2,677,614.7,676.3"/>
	<path id="XMLID_41_" fill-rule="evenodd" clip-rule="evenodd" fill="#909299" d="M645.6,682.5l-10.8-2.2c-3.5-0.7-5.8-4.2-5.1-7.7
		v0c0.7-3.5,4.1-5.8,7.6-5.1l10.8,2.2c3.5,0.7,5.8,4.2,5.1,7.7C652.5,681,649.1,683.2,645.6,682.5"/>
	<path id="XMLID_40_" fill-rule="evenodd" clip-rule="evenodd" fill="#909299" d="M676.5,688.8l-10.8-2.2c-3.5-0.7-5.8-4.2-5.1-7.7
		l0,0c0.7-3.5,4.1-5.8,7.6-5.1l10.8,2.2c3.5,0.7,5.8,4.2,5.1,7.7l0,0C683.4,687.2,680,689.5,676.5,688.8"/>
	<path id="XMLID_39_" fill-rule="evenodd" clip-rule="evenodd" fill="#909299" d="M610.5,697.4l-10.8-2.2c-3.5-0.7-5.8-4.2-5.1-7.7
		l0,0c0.7-3.5,4.1-5.8,7.6-5.1l10.8,2.2c3.5,0.7,5.8,4.2,5.1,7.7l0,0C617.4,695.8,614,698.1,610.5,697.4"/>
	<path id="XMLID_38_" fill-rule="evenodd" clip-rule="evenodd" fill="#909299" d="M641.4,703.6l-10.8-2.2c-3.5-0.7-5.8-4.2-5.1-7.7
		l0,0c0.7-3.5,4.1-5.8,7.6-5.1l10.8,2.2c3.5,0.7,5.8,4.2,5.1,7.7h0C648.3,702,644.9,704.3,641.4,703.6"/>
	<path id="XMLID_37_" fill-rule="evenodd" clip-rule="evenodd" fill="#909299" d="M672.3,709.9l-10.8-2.2c-3.5-0.7-5.8-4.2-5.1-7.7
		l0,0c0.7-3.5,4.1-5.8,7.6-5.1l10.8,2.2c3.5,0.7,5.8,4.2,5.1,7.7v0C679.2,708.3,675.8,710.6,672.3,709.9"/>
	<path id="XMLID_36_" fill-rule="evenodd" clip-rule="evenodd" fill="#909299" d="M637.2,724.3l-10.8-2.2c-3.5-0.7-5.8-4.2-5.1-7.7
		l0,0c0.7-3.5,4.1-5.8,7.6-5.1l10.8,2.2c3.5,0.7,5.8,4.2,5.1,7.7v0C644.1,722.7,640.7,725,637.2,724.3"/>
	<path id="XMLID_35_" fill-rule="evenodd" clip-rule="evenodd" fill="#E11F30" d="M593.7,743.1l-9-1.8c-2.9-0.6-4.8-3.5-4.2-6.4l0,0
		c0.6-2.9,3.5-4.8,6.4-4.2l9,1.8c2.9,0.6,4.8,3.5,4.2,6.4l0,0C599.5,741.8,596.6,743.7,593.7,743.1"/>
	<path id="XMLID_34_" fill-rule="evenodd" clip-rule="evenodd" fill="#158A5D" d="M618,748l-9-1.8c-2.9-0.6-4.8-3.5-4.2-6.4h0
		c0.6-2.9,3.5-4.8,6.4-4.2l9,1.8c2.9,0.6,4.8,3.5,4.2,6.4C623.8,746.7,620.9,748.6,618,748"/>
	<path id="XMLID_33_" fill-rule="evenodd" clip-rule="evenodd" fill="#EBA03E" d="M642,752.9l-9-1.8c-2.9-0.6-4.8-3.5-4.2-6.4
		c0.6-2.9,3.5-4.8,6.4-4.2l9,1.8c2.9,0.6,4.8,3.5,4.2,6.4C647.8,751.6,644.9,753.5,642,752.9"/>
	<path id="XMLID_32_" fill-rule="evenodd" clip-rule="evenodd" fill="#6090C8" d="M666,757.7l-9-1.8c-2.9-0.6-4.8-3.5-4.2-6.4l0,0
		c0.6-2.9,3.5-4.8,6.4-4.2l9,1.8c2.9,0.6,4.8,3.5,4.2,6.4l0,0C671.8,756.4,668.9,758.3,666,757.7"/>
	<path id="XMLID_31_" fill-rule="evenodd" clip-rule="evenodd" fill="#909299" d="M573.7,791.8l5.1-25.2c1.1-5.5,6.5-9.1,12-8l0,0
		c5.5,1.1,9.1,6.5,8,12.1l-5.1,25.2c-1.1,5.5-6.5,9.1-12,8h0C576.2,802.8,572.6,797.4,573.7,791.8"/>
	<path id="XMLID_30_" fill-rule="evenodd" clip-rule="evenodd" fill="#909299" d="M638.2,804.9l5.1-25.2c1.1-5.5,6.5-9.1,12-8l0,0
		c5.5,1.1,9.1,6.5,8,12.1l-5.1,25.2c-1.1,5.5-6.5,9.1-12,8C640.7,815.8,637.1,810.4,638.2,804.9"/>
	<path id="XMLID_29_" fill-rule="evenodd" clip-rule="evenodd" fill="#E11F30" d="M624.4,627.9l-10.8-2.2c-3.5-0.7-5.8-4.2-5.1-7.7
		v0c0.7-3.5,4.1-5.8,7.6-5.1l10.8,2.2c3.5,0.7,5.8,4.2,5.1,7.7v0C631.4,626.3,627.9,628.6,624.4,627.9"/>
	<path id="XMLID_28_" fill-rule="evenodd" clip-rule="evenodd" fill="#FFFFFF" d="M619.5,624.5c0,0-0.1,0-0.1,0
		c-1-0.2-1.8-0.8-2.3-1.7c-0.5-0.8-0.6-1.8-0.4-2.7c0.3-1.1,1.1-2,2.2-2.5c0,0,0.1,0,0.1,0c0,0,0,0.1,0,0.1c-1,0.4-1.8,1.3-2.1,2.4
		c-0.2,0.9-0.1,1.8,0.4,2.5c0.5,0.8,1.3,1.4,2.2,1.6c1.9,0.5,3.8-0.7,4.3-2.5c0.3-1.2-0.1-2.5-1-3.3c0,0,0-0.1,0-0.1
		c0,0,0.1,0,0.1,0c1,0.9,1.4,2.2,1.1,3.5C623.3,623.7,621.4,624.9,619.5,624.5"/>
	<path id="XMLID_27_" fill-rule="evenodd" clip-rule="evenodd" fill="#FFFFFF" d="M619.4,625.1L619.4,625.1c-0.1,0-0.1,0-0.2,0
		c-1.1-0.3-2.1-1-2.7-2c-0.6-0.9-0.7-2.1-0.5-3.1c0.3-1.3,1.3-2.4,2.6-2.9c0.4-0.1,0.7,0,0.9,0.4c0.1,0.2,0.1,0.4,0,0.5
		c-0.1,0.2-0.2,0.3-0.4,0.4c-0.9,0.3-1.5,1.1-1.7,1.9c-0.2,0.7-0.1,1.4,0.3,2.1c0.4,0.7,1.1,1.2,1.8,1.3c1.6,0.4,3.1-0.5,3.5-2
		c0.2-1-0.1-2-0.8-2.7c-0.3-0.3-0.3-0.7,0-1c0.3-0.3,0.7-0.3,1,0c1.1,1,1.6,2.6,1.3,4.1C623.9,624.2,621.7,625.5,619.4,625.1"/>
	<path id="XMLID_26_" fill-rule="evenodd" clip-rule="evenodd" fill="#FFFFFF" d="M620.3,620.4C620.3,620.4,620.3,620.3,620.3,620.4
		l0.8-4.5c0,0,0-0.1,0.1-0.1c0,0,0.1,0,0.1,0.1L620.3,620.4C620.4,620.4,620.4,620.4,620.3,620.4"/>
	<path id="XMLID_25_" fill-rule="evenodd" clip-rule="evenodd" fill="#FFFFFF" d="M620.2,621c-0.4-0.1-0.6-0.4-0.5-0.8l0.9-4.4
		c0.1-0.4,0.4-0.6,0.8-0.5c0.4,0.1,0.6,0.4,0.5,0.8l-0.9,4.4C620.9,620.8,620.6,621.1,620.2,621"/>
	<path id="XMLID_24_" fill-rule="evenodd" clip-rule="evenodd" fill="#909299" d="M655.3,634.2l-10.8-2.2c-3.5-0.7-5.8-4.2-5.1-7.7
		l0,0c0.7-3.5,4.1-5.8,7.6-5.1l10.8,2.2c3.5,0.7,5.8,4.2,5.1,7.7v0C662.3,632.6,658.8,634.9,655.3,634.2"/>
	<path id="XMLID_23_" fill-rule="evenodd" clip-rule="evenodd" fill="#909299" d="M686.2,640.5l-10.8-2.2c-3.5-0.7-5.8-4.2-5.1-7.7
		c0.7-3.5,4.1-5.8,7.6-5.1l10.8,2.2c3.5,0.7,5.8,4.2,5.1,7.7h0C693.2,638.9,689.7,641.2,686.2,640.5"/>
	<path id="XMLID_22_" fill-rule="evenodd" clip-rule="evenodd" fill="#909299" d="M625,784.6l-10.8-2.2c-3.5-0.7-5.8-4.2-5.1-7.7
		l0,0c0.7-3.5,4.1-5.8,7.6-5.1l10.8,2.2c3.5,0.7,5.8,4.2,5.1,7.7l0,0C632,783,628.5,785.3,625,784.6"/>
	<path id="XMLID_21_" fill-rule="evenodd" clip-rule="evenodd" fill="#909299" d="M620.7,806l-10.8-2.2c-3.5-0.7-5.8-4.2-5.1-7.7
		l0,0c0.7-3.5,4.1-5.8,7.6-5.1l10.8,2.2c3.5,0.7,5.8,4.2,5.1,7.7l0,0C627.6,804.4,624.2,806.7,620.7,806"/>
	<path id="XMLID_20_" fill-rule="evenodd" clip-rule="evenodd" fill="#909299" d="M576.6,827.8l-9-1.8c-2.9-0.6-4.8-3.5-4.2-6.4
		c0.6-2.9,3.5-4.8,6.4-4.2l9,1.8c2.9,0.6,4.8,3.5,4.2,6.4h0C582.4,826.5,579.5,828.4,576.6,827.8"/>
	<path id="XMLID_19_" fill-rule="evenodd" clip-rule="evenodd" fill="#909299" d="M600.9,832.7l-9-1.8c-2.9-0.6-4.8-3.5-4.2-6.4l0,0
		c0.6-2.9,3.5-4.8,6.4-4.2l9,1.8c2.9,0.6,4.8,3.5,4.2,6.4C606.7,831.4,603.8,833.3,600.9,832.7"/>
	<path id="XMLID_18_" fill-rule="evenodd" clip-rule="evenodd" fill="#909299" d="M624.9,837.6l-9-1.8c-2.9-0.6-4.8-3.5-4.2-6.4
		c0.6-2.9,3.5-4.8,6.4-4.2l9,1.8c2.9,0.6,4.8,3.5,4.2,6.4C630.7,836.3,627.8,838.2,624.9,837.6"/>
	<path id="XMLID_17_" fill-rule="evenodd" clip-rule="evenodd" fill="#909299" d="M648.9,842.5l-9-1.8c-2.9-0.6-4.8-3.5-4.2-6.4h0
		c0.6-2.9,3.5-4.8,6.4-4.2l9,1.8c2.9,0.6,4.8,3.5,4.2,6.4l0,0C654.6,841.1,651.8,843,648.9,842.5"/>
	<path id="XMLID_16_" fill-rule="evenodd" clip-rule="evenodd" fill="#909299" d="M572.6,847.8l-9-1.8c-2.9-0.6-4.8-3.5-4.2-6.4
		c0.6-2.9,3.5-4.8,6.4-4.2l9,1.8c2.9,0.6,4.8,3.5,4.2,6.4h0C578.3,846.4,575.5,848.3,572.6,847.8"/>
	<path id="XMLID_15_" fill-rule="evenodd" clip-rule="evenodd" fill="#909299" d="M596.9,852.7l-9-1.8c-2.9-0.6-4.8-3.5-4.2-6.4l0,0
		c0.6-2.9,3.5-4.8,6.4-4.2l9,1.8c2.9,0.6,4.8,3.5,4.2,6.4C602.7,851.4,599.8,853.3,596.9,852.7"/>
	<path id="XMLID_14_" fill-rule="evenodd" clip-rule="evenodd" fill="#909299" d="M620.9,857.5l-9-1.8c-2.9-0.6-4.8-3.5-4.2-6.4
		c0.6-2.9,3.5-4.8,6.4-4.2l9,1.8c2.9,0.6,4.8,3.5,4.2,6.4C626.6,856.2,623.8,858.1,620.9,857.5"/>
	<path id="XMLID_13_" fill-rule="evenodd" clip-rule="evenodd" fill="#909299" d="M644.8,862.4l-9-1.8c-2.9-0.6-4.8-3.5-4.2-6.4h0
		c0.6-2.9,3.5-4.8,6.4-4.2l9,1.8c2.9,0.6,4.8,3.5,4.2,6.4l0,0C650.6,861.1,647.8,863,644.8,862.4"/>
	<path id="XMLID_12_" fill-rule="evenodd" clip-rule="evenodd" fill="#ECC1A6" d="M507.7,818l10.5,10.5l81.6-81.9
		c7.1-7.1,7.1-18.7,0-25.9c-7.1-7.2-18.7-7.2-25.8,0l-55,55.2L507.7,818z"/>
	<rect id="XMLID_11_" x="155.4" y="97.9" fill-rule="evenodd" clip-rule="evenodd" width="178.9" height="179.5"/>
	<rect id="XMLID_10_" x="167" y="109.6" fill-rule="evenodd" clip-rule="evenodd" fill="#849DAA" width="155.7" height="156.2"/>
	<rect id="XMLID_9_" x="171" y="113.6" fill-rule="evenodd" clip-rule="evenodd" fill="#FFFFFF" width="147.6" height="148.1"/>
	<polygon id="XMLID_8_" fill-rule="evenodd" clip-rule="evenodd" fill="#E6E7E8" points="171,113.6 318.7,113.6 318.7,261.7 	"/>
	<rect id="XMLID_7_" x="1065.7" y="97.9" fill-rule="evenodd" clip-rule="evenodd" width="178.9" height="179.5"/>
	<rect id="XMLID_6_" x="1077.3" y="109.6" fill-rule="evenodd" clip-rule="evenodd" fill="#849DAA" width="155.7" height="156.2"/>
	<rect id="XMLID_5_" x="1081.3" y="113.6" fill-rule="evenodd" clip-rule="evenodd" fill="#FFFFFF" width="147.6" height="148.1"/>
	<polygon id="XMLID_4_" fill-rule="evenodd" clip-rule="evenodd" fill="#E6E7E8" points="1081.3,113.6 1229,113.6 1229,261.7 	"/>
	<g>
		<rect id="XMLID_3_" x="1196.6" y="459.3" fill-rule="evenodd" clip-rule="evenodd" fill="#E7A95C" width="98.6" height="124.9"/>
		<rect id="XMLID_2_" x="1213.5" y="477.2" fill-rule="evenodd" clip-rule="evenodd" fill="#DEDFE0" width="64.8" height="89.2"/>
	</g>
</g>
</svg>
