<?xml version="1.0" encoding="UTF-8" standalone="no"?>
<svg
   xmlns:dc="http://purl.org/dc/elements/1.1/"
   xmlns:cc="http://creativecommons.org/ns#"
   xmlns:rdf="http://www.w3.org/1999/02/22-rdf-syntax-ns#"
   xmlns:svg="http://www.w3.org/2000/svg"
   xmlns="http://www.w3.org/2000/svg"
   xmlns:sodipodi="http://sodipodi.sourceforge.net/DTD/sodipodi-0.dtd"
   xmlns:inkscape="http://www.inkscape.org/namespaces/inkscape"
   version="1.1"
   id="svg2"
   xml:space="preserve"
   width="4008.6667"
   height="2666.6667"
   viewBox="0 0 4008.6667 2666.6667"
   sodipodi:docname="5438.eps"><metadata
     id="metadata8"><rdf:RDF><cc:Work
         rdf:about=""><dc:format>image/svg+xml</dc:format><dc:type
           rdf:resource="http://purl.org/dc/dcmitype/StillImage" /></cc:Work></rdf:RDF></metadata><defs
     id="defs6" /><sodipodi:namedview
     pagecolor="#ffffff"
     bordercolor="#666666"
     borderopacity="1"
     objecttolerance="10"
     gridtolerance="10"
     guidetolerance="10"
     inkscape:pageopacity="0"
     inkscape:pageshadow="2"
     inkscape:window-width="640"
     inkscape:window-height="480"
     id="namedview4" /><g
     id="g10"
     inkscape:groupmode="layer"
     inkscape:label="ink_ext_XXXXXX"
     transform="matrix(1.3333333,0,0,-1.3333333,0,2666.6667)"><g
       id="g12"
       transform="scale(0.1)"><path
         d="M 0,0 H 30065 V 20000 H 0 Z"
         style="fill:#ffffff;fill-opacity:1;fill-rule:nonzero;stroke:none"
         id="path14" /><path
         d="M 27567.2,6147.1 C 27464.8,4947.6 27314.8,2798.3 25865.3,2298.5 H 2823.36 c 0,0 -1168.7,2171.1 -1342.2,4769.6 -44.31,663 -23.8,1353.7 97.5,2043.4 214.19,1218.6 742.9,2433.6 1784.3,3485.4 779.4,787.2 1499.29,1136.9 2420,1760 763.29,516.5 1377.59,1724.1 2013.7,2375.4 614.59,629.1 1346.4,1064.7 2182.5,1334.7 1944.64,627.8 4070.24,278.3 5889.74,-573.9 1474.4,-690.5 3043.1,-1279.4 4669.2,-1473.5 1712.7,-204.4 3342,67.8 4818.5,-1074.7 847,-655.5 1450.8,-1649.7 1600.4,-2714.4 149.4,-1061.7 -386.8,-2070.6 -242,-3084.4 1.7,-11.6 3.4,-23.1 5.2,-34.6 116.3,-738.6 552.2,-1331.1 753.3,-2043.4 79.7,-282.6 122.5,-584 93.7,-921"
         style="fill:#efecf7;fill-opacity:1;fill-rule:nonzero;stroke:none"
         id="path16" /><path
         d="M 28591,1370.7 H 1496.38 l 0.53,0.6 c 1592.52,1731.1 4799.57,1359.4 6969.35,1256.7 865.25,-41.1 1732.04,-64.2 2599.04,-72.2 90.9,-0.9 181.8,-1.6 272.7,-2 133.1,-0.9 266.3,-1.3 399.4,-1.4 88.3,-0.1 176.7,-0.1 264.9,0.1 2085.7,5.4 4173.1,91.2 6252.2,215.7 2955.2,177.3 6133.7,506.9 8888.9,-629 73,-30.2 145.8,-61.4 218.3,-93.7 421.1,-187.1 831.6,-410 1229.3,-674.8"
         style="fill:#ceceea;fill-opacity:1;fill-rule:nonzero;stroke:none"
         id="path18" /><path
         d="m 26715,9146.1 c 1.7,-11.6 3.4,-23.1 5.2,-34.6 H 1578.66 c 214.19,1218.6 742.9,2433.6 1784.3,3485.4 779.4,787.2 1499.29,1136.9 2420,1760 763.29,516.5 1377.59,1724.1 2013.7,2375.4 614.59,629.1 1346.4,1064.7 2182.5,1334.7 1944.64,627.8 4070.24,278.3 5889.74,-573.9 1474.4,-690.5 3043.1,-1279.4 4669.2,-1473.5 1712.7,-204.4 3342,67.8 4818.5,-1074.7 847,-655.5 1450.8,-1649.7 1600.4,-2714.4 149.4,-1061.7 -386.8,-2070.6 -242,-3084.4"
         style="fill:#ceceea;fill-opacity:1;fill-rule:nonzero;stroke:none"
         id="path20" /><path
         d="m 12835.6,8713.9 h 1017.2 c 44.5,0 80.9,-22.9 80.9,-50.8 V 8576 c 0,-27.9 -36.4,-50.8 -80.9,-50.8 h -1017.2 c -44.5,0 -80.9,22.9 -80.9,50.8 v 87.1 c 0,27.9 36.4,50.8 80.9,50.8"
         style="fill:#3d3d6b;fill-opacity:1;fill-rule:evenodd;stroke:none"
         id="path22" /><path
         d="m 12835.6,10259.8 h 1017.2 c 44.5,0 80.9,-22.8 80.9,-50.7 v -87.2 c 0,-27.9 -36.4,-50.8 -80.9,-50.8 h -1017.2 c -44.5,0 -80.9,22.9 -80.9,50.8 v 87.2 c 0,27.9 36.4,50.7 80.9,50.7"
         style="fill:#3d3d6b;fill-opacity:1;fill-rule:evenodd;stroke:none"
         id="path24" /><path
         d="m 22385.6,13220.3 c 0,0 -163.7,1132.6 -1108.8,1720.6 0,0 -456.4,246.7 -758.6,52.1 -302.2,-194.5 -107.8,-734.5 424.8,-835.1 532.6,-100.5 1128.7,-273 1442.6,-937.6"
         style="fill:#a8a1e2;fill-opacity:1;fill-rule:evenodd;stroke:none"
         id="path26" /><path
         d="m 22440.9,12354.5 c 0,0 -170.9,846.2 -573.9,1200.7 -403,354.5 -753.2,239.3 -781.3,-1.9 -28.2,-241.1 193.2,-442.4 421.2,-550.1 227.9,-107.8 686,-178.9 934,-648.7"
         style="fill:#7979b2;fill-opacity:1;fill-rule:evenodd;stroke:none"
         id="path28" /><path
         d="m 22677.1,13772.3 c 0,0 96.2,1767.8 -496.8,2923.7 -600.8,1171 -1962.1,559.4 -1175.7,-357.2 417.1,-486.1 1215.6,-1259.9 1672.5,-2566.5"
         style="fill:#a8a1e2;fill-opacity:1;fill-rule:evenodd;stroke:none"
         id="path30" /><path
         d="m 23207,13833.1 c 0,0 -166.8,1802.5 179.9,2791.9 346.7,989.4 702.4,1276.2 1063.1,1180.4 360.6,-95.8 509.8,-763.3 49.8,-1445.2 -460,-682 -873.2,-1357.4 -1292.8,-2527.1"
         style="fill:#7979b2;fill-opacity:1;fill-rule:evenodd;stroke:none"
         id="path32" /><path
         d="m 23430.1,12916.6 c 0,0 163.8,1143.1 703.2,1729.1 539.4,586.1 1173.5,410.9 1274.7,174.8 101.2,-236.1 19.9,-600.7 -407.8,-752.8 -427.8,-152.1 -1044.3,-213.2 -1570.1,-1151.1"
         style="fill:#a8a1e2;fill-opacity:1;fill-rule:evenodd;stroke:none"
         id="path34" /><path
         d="m 23433.8,11801.8 c 0,0 224.6,1178.5 860.8,1527.8 636.2,349.3 894.5,-297.8 538.5,-561.2 -356,-263.3 -777.9,-267.3 -1399.3,-966.6"
         style="fill:#a8a1e2;fill-opacity:1;fill-rule:evenodd;stroke:none"
         id="path36" /><path
         d="m 24239.7,17261.4 c 8.7,15.7 2.7,36 -13.4,45.3 -16.1,9.3 -36.2,4.2 -44.9,-11.6 -4.7,-8.5 -1655.2,-2923.4 -1054.1,-8278.7 2,-18.2 18.4,-32 36.6,-30.7 18.2,1.3 31.3,17.2 29.3,35.4 -598.8,5334.4 1041.8,8231.8 1046.5,8240.3"
         style="fill:#3d3d6b;fill-opacity:1;fill-rule:evenodd;stroke:none"
         id="path38" /><path
         d="m 21764.1,16572.2 c -9,16.2 -29.2,22.7 -45.1,14.4 -15.9,-8.3 -21.6,-28.2 -12.7,-44.5 4.9,-8.8 1689.9,-3013.8 1153.9,-7395.6 -2.2,-18 10.7,-35 28.9,-38 18.1,-2.9 34.7,9.4 36.9,27.4 538.7,4403.3 -1157.1,7427.4 -1161.9,7436.3"
         style="fill:#3d3d6b;fill-opacity:1;fill-rule:evenodd;stroke:none"
         id="path40" /><path
         d="m 20838.9,14690.8 c -18.3,1.4 -33.7,-12.2 -34.4,-30.4 -0.7,-18.2 13.6,-34.2 31.9,-35.6 6.7,-0.6 2343,-129.1 2023.5,-5480.3 -1,-18.2 13,-34.5 31.2,-36.2 18.3,-1.9 34,11.5 35.1,29.7 323.5,5419.1 -2080.4,5552.2 -2087.3,5552.8"
         style="fill:#3d3d6b;fill-opacity:1;fill-rule:evenodd;stroke:none"
         id="path42" /><path
         d="m 21550.3,13403.8 c -17.7,5.4 -35.9,-4.4 -40.6,-21.9 -4.7,-17.4 5.8,-36.1 23.5,-41.4 4.3,-1.4 1510,-429.1 1184.1,-4026.6 -1.7,-18.1 11.8,-34.8 30,-37.1 18.3,-2.4 34.4,10.4 36,28.6 331,3653.2 -1228.5,4097 -1233,4098.4"
         style="fill:#3d3d6b;fill-opacity:1;fill-rule:evenodd;stroke:none"
         id="path44" /><path
         d="m 25090.4,14573.2 c 18.2,0.2 32.3,15.1 31.4,33.4 -0.8,18.3 -16.4,33 -34.6,32.8 -6.8,0 -2379,31.7 -1902.7,-5212.7 1.6,-18.2 17.7,-32.4 35.9,-31.5 18.3,0.8 31.9,16.3 30.2,34.6 -470,5175.1 1833.2,5143.4 1839.8,5143.4"
         style="fill:#3d3d6b;fill-opacity:1;fill-rule:evenodd;stroke:none"
         id="path46" /><path
         d="m 24522.3,13010.8 c 17.9,3.2 29.1,20.6 25.1,38.5 -4.1,18 -21.8,30 -39.7,26.7 -4.5,-0.9 -1588,-258.1 -1242.9,-3816.2 1.7,-18.3 17.9,-32.3 36.2,-31.3 18.3,1 31.7,16.7 29.9,35 -339.4,3499.3 1187,3746.5 1191.4,3747.3"
         style="fill:#3d3d6b;fill-opacity:1;fill-rule:evenodd;stroke:none"
         id="path48" /><path
         d="m 23466.4,7717.2 h -889.3 c -66.2,0 -121.4,50.5 -127.2,116.4 l -174.5,1972.8 c -6.6,74.6 52.3,138.9 127.2,138.9 h 1238.3 c 74.9,0 133.8,-64.3 127.2,-138.9 l -174.5,-1972.8 c -5.8,-65.9 -61,-116.4 -127.2,-116.4"
         style="fill:#e8628c;fill-opacity:1;fill-rule:evenodd;stroke:none"
         id="path50" /><path
         d="m 22439.6,7952.9 10.5,-119.2 c 5.8,-65.9 61,-116.4 127.2,-116.4 h 889.4 c 66.1,0 121.3,50.5 127.1,116.4 l 174.4,1972.7 c 6.7,74.7 -52.2,138.9 -127.1,138.9 h -32.1 l -166,-1875.9 c -5.9,-65.9 -61,-116.5 -127.2,-116.5 h -876.2"
         style="fill:#dd5b8a;fill-opacity:1;fill-rule:evenodd;stroke:none"
         id="path52" /><path
         d="m 24371.3,5450.4 c 64.6,-126.7 92.3,-273.7 70.9,-425.2 -55.5,-392.1 -418.4,-664.9 -810.5,-609.5 -151.5,21.5 -285,89 -388.9,186.2 102.5,-201.2 298,-351.1 538.6,-385.2 392,-55.4 754.9,217.4 810.4,609.5 34.1,240.5 -55.6,470 -220.5,624.2"
         style="fill:#a8a1e2;fill-opacity:1;fill-rule:nonzero;stroke:none"
         id="path54" /><path
         d="m 24442.2,5025.2 c 21.4,151.5 -6.3,298.5 -70.9,425.2 -103.8,97.3 -237.4,164.7 -388.9,186.2 -392.1,55.5 -754.9,-217.4 -810.4,-609.4 -21.5,-151.5 6.3,-298.6 70.8,-425.3 103.9,-97.2 237.4,-164.7 388.9,-186.2 392.1,-55.4 755,217.4 810.5,609.5"
         style="fill:#bbbae8;fill-opacity:1;fill-rule:nonzero;stroke:none"
         id="path56" /><path
         d="m 2109.9,7094.1 c -23.16,0 -46.6,6.5 -67.48,20 l -43.49,28.1 c -57.69,37.4 -74.19,114.4 -36.85,172.1 l 1163.17,1797.2 h 58.04 L 3231.14,8721.7 2214.47,7151 c -23.82,-36.8 -63.77,-56.9 -104.57,-56.9"
         style="fill:#afacdd;fill-opacity:1;fill-rule:nonzero;stroke:none"
         id="path58" /><path
         d="m 3183.29,9111.5 h -58.04 l 48.79,75.3 9.25,-75.3"
         style="fill:#a6a4d9;fill-opacity:1;fill-rule:nonzero;stroke:none"
         id="path60" /><path
         d="m 2292.63,7124 c -23.14,0 -46.54,6.4 -67.41,19.9 l -10.75,7 1016.68,1570.8 26.05,-212.2 -859.91,-1328.6 c -23.83,-36.8 -63.83,-56.9 -104.66,-56.9"
         style="fill:#9f9ec6;fill-opacity:1;fill-rule:nonzero;stroke:none"
         id="path62" /><path
         d="m 6156.86,8056.4 c 0,-368.2 -298.53,-666.8 -666.8,-666.8 -368.26,0 -666.81,298.6 -666.81,666.8 0,368.3 298.55,666.9 666.81,666.9 368.27,0 666.8,-298.6 666.8,-666.9"
         style="fill:#e8628c;fill-opacity:1;fill-rule:nonzero;stroke:none"
         id="path64" /><path
         d="m 5260.82,8826.9 c -246.22,0 -440.26,-89.9 -470.69,-235.8 -18.47,-88.6 27.17,-186.2 128.5,-274.9 105.44,-92.3 257.13,-162.7 427.13,-198.1 345.72,-72.1 659,22.8 698.36,211.6 39.34,188.8 -209.9,401 -555.62,473 -78.5,16.4 -155.35,24.2 -227.68,24.2 m 311.04,-785.5 c -76.56,0 -156.5,8.4 -236.85,25.1 -178.73,37.3 -338.93,111.9 -451.07,210.1 -116.27,101.7 -167.89,217.3 -145.37,325.3 22.52,108 116.02,193.3 263.26,240.1 142.04,45.2 318.69,49.6 497.42,12.3 178.72,-37.3 338.92,-111.8 451.06,-210 116.27,-101.8 167.9,-217.3 145.37,-325.3 v -0.1 c -22.52,-108 -116.02,-193.3 -263.26,-240.1 -78.17,-24.9 -166.84,-37.4 -260.56,-37.4"
         style="fill:#3d3d6b;fill-opacity:1;fill-rule:nonzero;stroke:none"
         id="path66" /><path
         d="m 4407.96,7289.2 -127.61,44.1 c -74.76,25.9 -114.42,107.4 -88.6,182.1 l 503.75,1458.4 c 25.84,74.7 107.36,114.4 182.11,88.6 l 127.62,-44.1 c 74.74,-25.8 114.41,-107.4 88.59,-182.1 L 4590.06,7377.8 c -25.82,-74.7 -107.36,-114.4 -182.1,-88.6"
         style="fill:#3d3d6b;fill-opacity:1;fill-rule:nonzero;stroke:none"
         id="path68" /><path
         d="m 3697.79,7399.4 -108.7,80.1 c -63.67,46.9 -77.26,136.5 -30.35,200.2 l 915.13,1242.2 c 46.91,63.7 136.56,77.3 200.23,30.3 l 108.7,-80 c 63.66,-46.9 77.26,-136.6 30.35,-200.3 L 3898.01,7429.7 c -46.91,-63.6 -136.55,-77.2 -200.22,-30.3"
         style="fill:#7979b2;fill-opacity:1;fill-rule:nonzero;stroke:none"
         id="path70" /><path
         d="M 5944.53,7283.4 H 4478.91 c 49.78,8.6 93.49,43.3 111.15,94.4 l 233.2,675.1 c 1.89,-366.6 299.7,-663.3 666.8,-663.3 368.27,0 666.8,298.6 666.8,666.8 0,97.9 -21.09,190.9 -58.98,274.6 16.4,104.6 -35.62,215.3 -147.57,313.3 -112.14,98.2 -272.34,172.7 -451.06,210 -80.37,16.8 -160.28,25.1 -236.85,25.1 -56.1,0 -110.4,-4.5 -161.71,-13.4 7.87,65.5 -30.58,129.9 -95.46,152.3 l -127.62,44.1 c -15.48,5.3 -31.24,7.9 -46.76,7.9 -59.36,0 -114.87,-37.3 -135.35,-96.5 l -10.27,-29.8 -11.13,8.2 c -25.57,18.9 -55.32,28 -84.82,28 -43.96,0 -87.34,-20.2 -115.41,-58.3 L 3558.74,7679.7 c -46.91,-63.7 -33.32,-153.3 30.35,-200.2 l 108.7,-80.1 c 25.57,-18.9 55.32,-27.9 84.82,-27.9 43.95,0 87.33,20.1 115.4,58.2 l 497.33,675.1 -203.59,-589.4 c -25.82,-74.7 13.84,-156.2 88.6,-182.1 l 127.61,-44.1 c 7.47,-2.5 15.01,-4.5 22.56,-5.8 H 3686.4 c -159.11,0 -293.24,118.7 -312.62,276.6 l -116.58,949.5 389.64,602 h 2794.67 l -184.2,-1550.2 c -18.82,-158.5 -153.19,-277.9 -312.78,-277.9 m 92.2,1155 c -120.56,172.2 -320.46,284.9 -546.67,284.9 -211.67,0 -400.3,-98.7 -522.45,-252.5 l 117.15,339.2 c 54.08,11 113.37,16.9 176.06,16.9 72.33,0 149.18,-7.8 227.68,-24.2 280.24,-58.4 497.1,-208.9 548.23,-364.3 m -2805.58,283.3 h -0.01 l 252.25,389.8 h 0.02 l -252.26,-389.8"
         style="fill:#afacdd;fill-opacity:1;fill-rule:nonzero;stroke:none"
         id="path72" /><path
         d="M 6441.51,9111.5 H 3646.84 l 28.96,44.7 c 37.33,57.7 20.84,134.7 -36.84,172 l -10.75,7 -144.8,-223.7 h -0.02 l 144.82,223.7 c 37.34,57.7 20.84,134.8 -36.85,172.1 l -43.48,28.1 c -20.89,13.6 -44.33,20 -67.49,20 -40.8,0 -80.76,-20 -104.58,-56.8 l -201.77,-311.8 -29.74,242.3 h -46.69 c -104.97,0 -190.06,85.1 -190.06,190 0,105 85.09,190.1 190.06,190.1 h 356.03 2716.15 379.1 c 104.97,0 190.06,-85.1 190.06,-190.1 0,-104.9 -85.09,-190 -190.06,-190 h -69.64 l -37.74,-317.6"
         style="fill:#a6a4d9;fill-opacity:1;fill-rule:nonzero;stroke:none"
         id="path74" /><path
         d="m 3231.14,8721.7 -47.85,389.8 h 300.1 l -252.25,-389.8"
         style="fill:#9d9ad6;fill-opacity:1;fill-rule:nonzero;stroke:none"
         id="path76" /><path
         d="m 3483.39,9111.5 h -300.1 l -9.25,75.3 201.77,311.8 c 23.82,36.8 63.78,56.8 104.58,56.8 23.16,0 46.6,-6.4 67.49,-20 l 43.48,-28.1 c 57.69,-37.3 74.19,-114.4 36.85,-172.1 l -144.82,-223.7"
         style="fill:#9b98d5;fill-opacity:1;fill-rule:nonzero;stroke:none"
         id="path78" /><path
         d="m 3257.2,8509.5 -26.05,212.2 252.26,389.8 h 163.43 l -389.64,-602"
         style="fill:#9997cf;fill-opacity:1;fill-rule:nonzero;stroke:none"
         id="path80" /><path
         d="m 3646.84,9111.5 h -163.43 l 144.8,223.7 10.75,-7 c 57.68,-37.3 74.17,-114.3 36.84,-172 l -28.96,-44.7"
         style="fill:#9795cf;fill-opacity:1;fill-rule:nonzero;stroke:none"
         id="path82" /><path
         d="m 5490.06,7389.6 c -367.1,0 -664.91,296.7 -666.8,663.3 l 73.47,212.7 c 111.37,-92.7 266.24,-163.2 438.28,-199.1 80.35,-16.7 160.29,-25.1 236.85,-25.1 93.72,0 182.39,12.5 260.56,37.4 147.24,46.8 240.74,132.1 263.26,240.1 v 0.1 c 0.84,4 1.57,8 2.2,12 37.89,-83.7 58.98,-176.7 58.98,-274.6 0,-368.2 -298.53,-666.8 -666.8,-666.8 m 83.39,704.4 c -72.32,0 -149.19,7.7 -227.69,24.1 -170,35.4 -321.69,105.8 -427.13,198.1 -1.14,1 -2.28,2 -3.4,3 l 52.38,151.6 c 122.15,153.8 310.78,252.5 522.45,252.5 226.21,0 426.11,-112.7 546.67,-284.9 11.95,-36.4 14.85,-72.9 7.39,-108.7 C 6013.7,8183.8 5819.67,8094 5573.45,8094"
         style="fill:#ad86c0;fill-opacity:1;fill-rule:nonzero;stroke:none"
         id="path84" /><path
         d="m 5571.86,8041.4 c -76.56,0 -156.5,8.4 -236.85,25.1 -172.04,35.9 -326.91,106.4 -438.28,199.1 l 18.5,53.6 c 1.12,-1 2.26,-2 3.4,-3 105.44,-92.3 257.13,-162.7 427.13,-198.1 78.5,-16.4 155.37,-24.1 227.69,-24.1 246.22,0 440.25,89.8 470.67,235.7 7.46,35.8 4.56,72.3 -7.39,108.7 -51.13,155.4 -267.99,305.9 -548.23,364.3 -78.5,16.4 -155.35,24.2 -227.68,24.2 -62.69,0 -121.98,-5.9 -176.06,-16.9 l 9.06,26.2 c 3.41,9.9 5.67,19.8 6.87,29.8 51.31,8.9 105.61,13.4 161.71,13.4 76.57,0 156.48,-8.3 236.85,-25.1 178.72,-37.3 338.92,-111.8 451.06,-210 111.95,-98 163.97,-208.7 147.57,-313.3 -0.63,-4 -1.36,-8 -2.2,-12 v -0.1 c -22.52,-108 -116.02,-193.3 -263.26,-240.1 -78.17,-24.9 -166.84,-37.4 -260.56,-37.4"
         style="fill:#7f7cb7;fill-opacity:1;fill-rule:nonzero;stroke:none"
         id="path86" /><path
         d="m 4478.91,7283.4 h -48.39 c -7.55,1.3 -15.09,3.3 -22.56,5.8 l -127.61,44.1 c -74.76,25.9 -114.42,107.4 -88.6,182.1 l 203.59,589.4 417.81,567.1 c 46.91,63.7 33.31,153.4 -30.35,200.3 l -97.57,71.8 10.27,29.8 c 20.48,59.2 75.99,96.5 135.35,96.5 15.52,0 31.28,-2.6 46.76,-7.9 l 127.62,-44.1 c 64.88,-22.4 103.33,-86.8 95.46,-152.3 -1.2,-10 -3.46,-19.9 -6.87,-29.8 l -9.06,-26.2 -117.15,-339.2 -52.38,-151.6 -18.5,-53.6 -73.47,-212.7 -233.2,-675.1 c -17.66,-51.1 -61.37,-85.8 -111.15,-94.4"
         style="fill:#7f7cb7;fill-opacity:1;fill-rule:nonzero;stroke:none"
         id="path88" /><path
         d="m 3782.61,7371.5 c -29.5,0 -59.25,9 -84.82,27.9 l -108.7,80.1 c -63.67,46.9 -77.26,136.5 -30.35,200.2 l 915.13,1242.2 c 28.07,38.1 71.45,58.3 115.41,58.3 29.5,0 59.25,-9.1 84.82,-28 l 11.13,-8.2 97.57,-71.8 c 63.66,-46.9 77.26,-136.6 30.35,-200.3 l -417.81,-567.1 -497.33,-675.1 c -28.07,-38.1 -71.45,-58.2 -115.4,-58.2"
         style="fill:#8f8dca;fill-opacity:1;fill-rule:nonzero;stroke:none"
         id="path90" /><path
         d="m 5629.98,3533.2 c 3.77,5.7 7.75,11.4 11.71,16.8 115.62,158.1 305.56,250.2 441.95,389.6 38.8,39.6 67.89,102.7 112.82,134.6 31.34,22.3 67.92,8.9 101.25,-6.2 29.24,-13.3 48.29,-44.1 58.42,-72.7 19.78,-56.1 -17.94,-114.8 -35.39,-165.2 -62.13,-179.2 -176.51,-329.6 -312.96,-459.9 -59.84,-57.2 -125.39,-123.6 -207.6,-149.2 -67.84,-21.2 -153.32,2.8 -195.18,62 -56.09,79.2 -21.65,179.2 24.98,250.2"
         style="fill:#ef658a;fill-opacity:1;fill-rule:nonzero;stroke:none"
         id="path92" /><path
         d="m 5270.32,4188.2 c 86.9,-3.6 173.75,-12.9 259.94,-23.5 78.16,-9.5 158.99,-20 232.83,-48.4 29.09,-11.2 51.06,-15.8 71.29,-40.4 14.24,-17.2 28.93,-40.3 30.81,-63 2.23,-27.7 -48.33,-48.9 -88.76,-59.5 -74.29,-63.5 -163.95,-110 -254.39,-143.4 -124.75,-46.4 -257.02,-83.5 -389.96,-93.3 -105.57,-7.7 -226.62,13.6 -307.25,87 -31.52,28.6 -40.06,75.2 -43.15,117.6 -10.43,57.8 13.8,123 52.42,163 105.82,109.7 296.64,109.6 436.22,103.9"
         style="fill:#ef658a;fill-opacity:1;fill-rule:nonzero;stroke:none"
         id="path94" /><path
         d="m 4751.69,4925.8 c 13.93,18.9 31.82,35.9 54.11,50.1 49.23,31.5 112.24,41.2 169.33,45.2 121.69,8.5 242.58,-27.4 354.45,-72.5 150.98,-61 318.97,-130.7 443.48,-238.5 25.83,-22.3 43.82,-54.3 27.84,-88.1 -22.01,-46.4 -56.84,-67.2 -104.75,-80.2 -48.68,-13.1 -100.99,-9.5 -153.05,-5.9 -33.84,2.4 -67.57,4.8 -100.11,2.5 -90.6,-6.2 -180.22,-23.9 -271.14,-23 -131.7,1.2 -282.69,24.3 -382.16,119.6 -82.06,78.6 -102.15,204.2 -38,290.8"
         style="fill:#ef658a;fill-opacity:1;fill-rule:nonzero;stroke:none"
         id="path96" /><path
         d="m 5370.58,4594.6 c 28.69,86.8 76.66,165.5 148.18,231.1 42.18,38.7 92.99,77.5 144.21,103.4 77.54,39.1 163.36,63.7 250.06,68.8 67.14,3.9 140.4,1 206.57,-12.1 60.1,-11.8 120.7,-28.1 176.29,-55.1 23.73,-11.6 46.57,-25.2 68.18,-40.5 17.22,-12.3 46.54,-52 64.91,-56.9 2.34,-0.6 4.63,-1.1 6.95,-1.7 32.45,-9.4 59.49,-59 67.87,-88.6 11.55,-41.3 -20.44,-70.7 -39.2,-102.1 -13.97,-23.5 -15.25,-57.9 -19.97,-84.3 -5.94,-33.3 -16.26,-66.1 -23.26,-99.4 -22.25,-105.7 -56.99,-204 -102.59,-301.5 -24.27,-52.1 -55.93,-98.2 -87.05,-146.2 -27.27,-41.8 -61.33,-81.5 -101.73,-111.2 -38.66,-28.3 -79.19,-45.8 -126.97,-51.5 -54.94,-6.7 -119.96,-11.7 -174.56,-1.5 -202.64,38 -401.95,159.5 -464.55,368.4 -16.66,55.7 -28.4,121.9 -26.8,180.3 1.9,69.7 12.54,137.3 33.46,200.6"
         style="fill:#ef658a;fill-opacity:1;fill-rule:nonzero;stroke:none"
         id="path98" /><path
         d="m 5518.76,4825.7 c 7.08,6.5 14.37,12.9 21.88,19.4 -7.51,-6.4 -14.8,-12.9 -21.88,-19.4"
         style="fill:#ad4a29;fill-opacity:1;fill-rule:nonzero;stroke:none"
         id="path100" /><path
         d="m 5895.13,3839.5 c 36.6,-0.3 74.17,3.2 107.9,7.3 47.78,5.7 88.31,23.2 126.97,51.5 l 1.15,0.9 c -13.13,18.3 -25.23,37.6 -36.28,57.8 -50.17,91.6 -78.82,191.4 -77.93,294.7 0.16,20.9 1.55,41.9 4.18,63 0.84,6.7 1.79,13.3 2.81,20 -5.28,-13 -10.19,-26.1 -14.7,-39.3 -38.5,-112.1 -21.82,-230.8 5.83,-343.1 1.16,-4.7 -1.56,-10.1 -6.48,-11.2 -22.99,-5.2 -46.59,-7.4 -70.51,-7.2 -111.86,0.9 -229.91,55.1 -318.68,114 -106.72,70.7 -183.54,182.4 -210.25,308.3 -48.08,226.2 74.01,429.2 242.94,567 -38.94,-21 -77.3,-48.9 -111.44,-78.1 -7.51,-6.5 -14.8,-12.9 -21.88,-19.4 -71.52,-65.6 -119.49,-144.3 -148.18,-231.1 -20.92,-63.3 -31.56,-130.9 -33.46,-200.6 -0.06,-2.6 -0.11,-5.1 -0.13,-7.6 -0.44,-56.5 10.96,-119.4 26.93,-172.7 8.83,-29.5 20.39,-57.2 34.27,-83.2 41.15,-76.9 102.84,-138.8 175.37,-185.8 76.66,-49.6 165.48,-82.7 254.91,-99.4 21.08,-4 43.68,-5.6 66.66,-5.8"
         style="fill:#e0638a;fill-opacity:1;fill-rule:nonzero;stroke:none"
         id="path102" /><path
         d="m 7144.02,4791.8 c 97.25,46 226.47,11.1 297.94,-65 78.92,-83.9 46.97,-202 -25.31,-276.3 -33.61,-34.7 -87.48,-49.9 -133.38,-58 -17.3,-3.2 -58.41,-6.4 -84.14,3 -2.25,-0.9 -4.55,-1.5 -7.39,-1.1 -22.6,3.3 -39.32,17.6 -57.92,30.1 -14.57,9.9 -28.37,20 -38.41,35 -10.08,15.3 -17.82,31.9 -22.22,49.3 -34.83,93.3 -30.15,234.9 70.83,283"
         style="fill:#ef658a;fill-opacity:1;fill-rule:nonzero;stroke:none"
         id="path104" /><path
         d="m 7151.97,4795.3 c 5.8,2.5 11.73,4.6 17.73,6.6 -6,-2 -11.93,-4.1 -17.73,-6.6"
         style="fill:#ebc9b3;fill-opacity:1;fill-rule:nonzero;stroke:none"
         id="path106" /><path
         d="m 7144.02,4791.8 c 2.64,1.2 5.27,2.4 7.95,3.5 -2.68,-1.1 -5.31,-2.3 -7.95,-3.5"
         style="fill:#bd623d;fill-opacity:1;fill-rule:nonzero;stroke:none"
         id="path108" /><path
         d="m 7170.59,4802.1 0.1,0.1 z m -0.4,-0.1 0.15,0.1 z m -0.44,-0.1 0.28,0.1 -0.28,-0.1"
         style="fill:#ebc9b3;fill-opacity:1;fill-rule:nonzero;stroke:none"
         id="path110" /><path
         d="m 6624.83,3791.9 0.71,4.5 c 8.52,22.4 27.83,28.9 47.69,40.6 27.68,15.9 52.86,31.3 83.36,41.4 55.62,18.4 110.44,19.3 163.65,0 l 3.72,0.8 c 112.21,-25.3 121.7,-138.2 106.13,-236.5 -14.18,-90.4 -82.83,-209.2 -184.03,-218.9 -114.7,-10.8 -212.04,27.5 -267.91,132.8 -43.8,82.5 -25.71,184.8 46.68,235.3"
         style="fill:#d2663e;fill-opacity:1;fill-rule:nonzero;stroke:none"
         id="path112" /><path
         d="m 6624.83,3791.9 0.71,4.5 c 8.52,22.4 27.83,28.9 47.69,40.6 27.68,15.9 52.86,31.3 83.36,41.4 55.62,18.4 110.44,19.3 163.65,0 l 3.72,0.8 c 112.21,-25.3 121.7,-138.2 106.13,-236.5 -14.18,-90.4 -82.83,-209.2 -184.03,-218.9 -114.7,-10.8 -212.04,27.5 -267.91,132.8 -43.8,82.5 -25.71,184.8 46.68,235.3"
         style="fill:#ef658a;fill-opacity:1;fill-rule:nonzero;stroke:none"
         id="path114" /><path
         d="m 6579.03,3555 -0.88,1.6 c -16.07,30.3 -23.81,63.2 -23.58,95.3 -0.23,-32.1 7.51,-65 23.58,-95.3 z m 0.25,-0.5 -0.23,0.4 z m 0.22,-0.4 -0.1,0.2 0.1,-0.2"
         style="fill:#ebc9b3;fill-opacity:1;fill-rule:nonzero;stroke:none"
         id="path116" /><path
         d="m 7256.01,4483.5 c 2.96,1.6 5.86,3.6 8.65,5.9 4.51,3.7 8.75,7.7 12.81,12 14.81,12 26.71,28.4 32.08,43.9 14.67,42.4 12.51,95.1 -26.55,123.9 -17.47,12.9 -39.21,21.1 -60.2,21.2 -17.85,0.2 -35.17,-5.5 -48.82,-18.9 38.57,-58.1 65.76,-121.8 82.03,-188"
         style="fill:#cc5e86;fill-opacity:1;fill-rule:nonzero;stroke:none"
         id="path118" /><path
         d="m 6021.12,4314.7 c 12.8,102.4 50.39,203.1 99.28,289.7 22.37,39.6 48.98,82 80.02,115.2 191.68,205.4 542.53,271.1 784.49,122.6 63.68,-39.1 138.79,-98.3 181.97,-160.3 167.61,-240.7 134.03,-584.1 -63.12,-796.2 -50.65,-54.3 -117.78,-115 -184.19,-148.9 -137.43,-70.1 -291.51,-97.4 -443.29,-63.6 -161.64,36.1 -300.52,136 -381.41,283.8 -60.29,110.1 -89.5,232 -73.75,357.7"
         style="fill:#ef658a;fill-opacity:1;fill-rule:nonzero;stroke:none"
         id="path120" /><path
         d="m 6551.79,3846.5 0.05,0.1 -0.05,-0.1"
         style="fill:#d18a62;fill-opacity:1;fill-rule:nonzero;stroke:none"
         id="path122" /><path
         d="m 6717.47,4623.9 c 11.04,24 46.25,25.2 63.23,8.1 15.49,-15.7 15.44,-41.7 -0.11,-57.3 -16.74,-16.9 -52.32,-16.1 -63.09,8.2 -6.5,15 -6.8,26.1 -0.03,41"
         style="fill:#3d3c3b;fill-opacity:1;fill-rule:nonzero;stroke:none"
         id="path124" /><path
         d="m 6594.77,4090.2 c 21.47,-0.2 39.34,-18 39.32,-39.6 0.04,-21.4 -17.91,-39.6 -39.23,-39.4 -21.42,0.1 -39.29,17.7 -39.35,39.4 0.04,21.5 17.94,39.7 39.26,39.6"
         style="fill:#3d3c3b;fill-opacity:1;fill-rule:nonzero;stroke:none"
         id="path126" /><path
         d="m 6412.39,4484.4 c 19.47,22.5 50.21,37.2 75.95,25 39.83,-18.9 26.03,-84.5 10.48,-115.5 -14.05,-28 -51.9,-53.8 -79.21,-26.6 -9.19,9.1 -14.49,21.4 -18.81,33.7 -4.66,13.2 -8.48,27 -7.65,41 0.85,14.3 8.25,29.6 19.24,42.4"
         style="fill:#3d3c3b;fill-opacity:1;fill-rule:nonzero;stroke:none"
         id="path128" /><path
         d="m 5582.7,4463.1 c 3.76,5.7 7.75,11.4 11.71,16.8 115.62,158.1 305.56,250.2 441.95,389.6 38.8,39.6 67.89,102.7 112.82,134.6 31.34,22.3 67.92,8.8 101.24,-6.2 29.25,-13.3 48.3,-44.1 58.43,-72.7 19.78,-56.1 -17.94,-114.8 -35.39,-165.2 -62.13,-179.2 -176.51,-329.6 -312.96,-459.9 -59.83,-57.2 -125.39,-123.6 -207.6,-149.2 -67.84,-21.2 -153.32,2.8 -195.18,62 -56.09,79.2 -21.66,179.2 24.98,250.2"
         style="fill:#e0638a;fill-opacity:1;fill-rule:nonzero;stroke:none"
         id="path130" /><path
         d="M 17388.4,7815.9 H 9300.04 c -132.85,0 -240.56,107.7 -240.56,240.6 V 10676 c 0,132.9 107.71,240.6 240.56,240.6 h 8088.36 c 132.8,0 240.5,-107.7 240.5,-240.6 V 8056.5 c 0,-132.9 -107.7,-240.6 -240.5,-240.6"
         style="fill:#a6a6c9;fill-opacity:1;fill-rule:evenodd;stroke:none"
         id="path132" /><path
         d="m 9756.98,10391.9 c -132.61,0 -240.49,-107.9 -240.49,-240.5 v -245.8 c 0,-132.7 107.88,-240.5 240.49,-240.5 h 7174.42 c 132.6,0 240.5,107.8 240.5,240.5 v 245.8 c 0,132.6 -107.9,240.5 -240.5,240.5 z M 16931.4,9615.1 H 9756.98 c -160.18,0 -290.49,130.3 -290.49,290.5 v 245.8 c 0,160.2 130.31,290.5 290.49,290.5 h 7174.42 c 160.2,0 290.5,-130.3 290.5,-290.5 v -245.8 c 0,-160.2 -130.3,-290.5 -290.5,-290.5"
         style="fill:#383860;fill-opacity:1;fill-rule:nonzero;stroke:none"
         id="path134" /><path
         d="m 9756.98,8991.5 c -132.61,0 -240.49,-107.9 -240.49,-240.5 v -245.9 c 0,-132.6 107.88,-240.5 240.49,-240.5 h 7174.42 c 132.6,0 240.5,107.9 240.5,240.5 V 8751 c 0,132.6 -107.9,240.5 -240.5,240.5 z M 16931.4,8214.6 H 9756.98 c -160.18,0 -290.49,130.3 -290.49,290.5 V 8751 c 0,160.2 130.31,290.5 290.49,290.5 h 7174.42 c 160.2,0 290.5,-130.3 290.5,-290.5 v -245.9 c 0,-160.2 -130.3,-290.5 -290.5,-290.5"
         style="fill:#383860;fill-opacity:1;fill-rule:nonzero;stroke:none"
         id="path136" /><path
         d="m 18309.2,16260.2 v -4822.9 c 0,-219.2 -177.7,-396.8 -396.8,-396.8 H 8856.05 c -219.09,0 -396.79,177.6 -396.79,396.8 v 4822.9 c 0,219.2 177.7,396.9 396.79,396.9 h 9056.35 c 179.1,0 330.6,-118.8 379.9,-282 11,-36.3 16.9,-74.9 16.9,-114.9"
         style="fill:#383860;fill-opacity:1;fill-rule:nonzero;stroke:none"
         id="path138" /><path
         d="m 17778.5,15957.6 v -4217.7 c 0,-219.2 -177.7,-396.8 -396.8,-396.8 H 9386.76 c -219.1,0 -396.8,177.6 -396.8,396.8 v 4217.7 c 0,25.5 2.4,50.4 7,74.5 34.8,183.6 196.1,322.3 389.8,322.3 h 7994.94 c 219.1,0 396.8,-177.6 396.8,-396.8"
         style="fill:#efecf7;fill-opacity:1;fill-rule:nonzero;stroke:none"
         id="path140" /><path
         d="M 18172.9,10696.1 H 8602.93 c -101.44,0 -183.67,82.3 -183.67,183.7 v 73.6 c 0,101.4 82.24,183.7 183.68,183.7 h 9569.96 c 101.4,0 183.7,-82.3 183.7,-183.7 v -73.6 c 0,-101.4 -82.3,-183.7 -183.7,-183.7"
         style="fill:#9696b5;fill-opacity:1;fill-rule:evenodd;stroke:none"
         id="path142" /><path
         d="m 17778.5,12094.2 v -354.3 c 0,-219.2 -177.7,-396.8 -396.8,-396.8 H 9386.76 c -219.1,0 -396.8,177.6 -396.8,396.8 v 1801.3 c 290.8,294.2 943.3,746.9 1974.04,219.8 1419,-725.6 1621.5,-985.6 3080.2,-1145.6 1440.1,-158 3095.8,210 3734.3,-521.2"
         style="fill:#e8628c;fill-opacity:1;fill-rule:nonzero;stroke:none"
         id="path144" /><path
         d="m 10201.9,15819.7 c -201.4,403.2 -586.44,147.4 -438.15,-138.4 -478.63,-116 -253.01,-574 115.87,-348.6 -25.24,-390.7 513.58,-534.2 556.48,-22.7 62.7,-183.3 510.3,-324.2 447.1,61.2 -3.4,21.2 149.5,-38.6 242.9,25.4 80.1,55 147.8,239.5 -4.5,347.2 148,155.2 -96,364.9 -323.5,94.9 -2,1.1 -6.7,479.5 -276.4,92.8 -17.2,284.5 -355.8,283.9 -319.8,-111.8"
         style="fill:#a8a1e2;fill-opacity:1;fill-rule:evenodd;stroke:none"
         id="path146" /><path
         d="m 16454.5,14278.9 c -7.6,450.7 -465.4,386.1 -455,64.4 -481.8,101.9 -476,-408.6 -45.9,-364.5 -191.5,-341.5 232.6,-703.5 492.1,-260.8 -22.5,-192.3 320.3,-512.6 429.7,-137.8 6,20.7 118.2,-99.3 230.1,-81.9 96,15 236.7,152.2 145.8,315.1 200.4,76.1 70.9,370.6 -250.8,225.3 -1.3,1.8 200.9,435.4 -209.3,203 107.3,264.1 -198.4,409.7 -336.7,37.2"
         style="fill:#a8a1e2;fill-opacity:1;fill-rule:evenodd;stroke:none"
         id="path148" /><path
         d="m 15236.7,12787.3 c 0,-73.3 -4.2,-145.7 -12.3,-216.8 -393,-2 -794.4,2.6 -1180.2,44.9 -1222.3,134.1 -1562.6,338.3 -2475.6,828 266.8,721.8 961.1,1236.4 1775.6,1236.4 1045.2,0 1892.5,-847.3 1892.5,-1892.5"
         style="fill:#bbbae8;fill-opacity:1;fill-rule:evenodd;stroke:none"
         id="path150" /><path
         d="m 10247.1,14482.9 c 399.4,-158 773.9,-370.2 1129.2,-610.4 48.1,-32.5 93.2,45.4 45.4,77.7 -362.1,244.8 -743.7,458.5 -1150.6,619.5 -53.9,21.3 -77.3,-65.7 -24,-86.8"
         style="fill:#bbbae8;fill-opacity:1;fill-rule:nonzero;stroke:none"
         id="path152" /><path
         d="m 11712.9,15993.2 c 256.7,-349.5 463.6,-730.8 638.6,-1126.9 23.3,-52.9 100.9,-7.1 77.7,45.4 -175,396.1 -381.9,777.4 -638.6,1126.9 -33.9,46.2 -112,1.4 -77.7,-45.4"
         style="fill:#bbbae8;fill-opacity:1;fill-rule:nonzero;stroke:none"
         id="path154" /><path
         d="m 13724.1,16265.7 c -11.8,-429.5 -81.7,-853.2 -185.7,-1269.6 -14,-56.2 72.8,-80.2 86.8,-24 105.8,424 176.9,856.3 188.9,1293.6 1.5,58 -88.5,57.9 -90,0"
         style="fill:#bbbae8;fill-opacity:1;fill-rule:nonzero;stroke:none"
         id="path156" /><path
         d="m 15914.8,15374.5 c -271.6,-338 -586.7,-636.2 -924.4,-907.3 -45.2,-36.3 18.9,-99.6 63.6,-63.6 337.7,271.1 652.9,569.2 924.4,907.2 36,44.8 -27.3,108.9 -63.6,63.7"
         style="fill:#bbbae8;fill-opacity:1;fill-rule:nonzero;stroke:none"
         id="path158" /><path
         d="m 16885,12981.8 c -429.6,-7.8 -856.1,42.3 -1276.8,127.1 -56.6,11.5 -80.8,-75.3 -23.9,-86.7 428.3,-86.5 863.3,-138.4 1300.7,-130.4 57.9,1 58.1,91 0,90"
         style="fill:#bbbae8;fill-opacity:1;fill-rule:nonzero;stroke:none"
         id="path160" /><path
         d="m 13013,13364.1 c -9.9,0 -19.5,4.8 -25.3,13.8 -91.1,141.6 -192.8,214.6 -302.2,217 -195.8,4.1 -356.5,-215.9 -358,-218.1 -9.6,-13.6 -28.3,-16.8 -41.8,-7.2 -13.6,9.5 -16.8,28.2 -7.3,41.8 1.8,2.4 174.5,243.5 401.6,243.5 2.3,0 4.5,0 6.8,0 130.6,-2.8 248.8,-85.1 351.4,-244.6 9,-13.9 4.9,-32.5 -9,-41.4 -5,-3.3 -10.7,-4.8 -16.2,-4.8"
         style="fill:#383860;fill-opacity:1;fill-rule:nonzero;stroke:none"
         id="path162" /><path
         d="m 14518,13364.1 c -9.9,0 -19.6,4.8 -25.3,13.8 -91.1,141.6 -192.8,214.6 -302.2,217 -196,4.1 -356.5,-215.9 -358.1,-218.1 -9.5,-13.6 -28.2,-16.8 -41.8,-7.2 -13.5,9.5 -16.7,28.2 -7.2,41.8 1.7,2.4 174.4,243.5 401.6,243.5 2.2,0 4.5,0 6.8,0 130.5,-2.8 248.8,-85.1 351.4,-244.6 8.9,-13.9 4.9,-32.5 -9,-41.4 -5.1,-3.3 -10.7,-4.8 -16.2,-4.8"
         style="fill:#383860;fill-opacity:1;fill-rule:nonzero;stroke:none"
         id="path164" /><path
         d="m 17309.8,3824.4 c 0,0 -708.2,379.1 -885.2,-35.2 -177.1,-414.2 -40.9,-1204.1 885.2,-1490.1 926.1,-286 381.4,326.8 381.4,326.8 l -381.4,1198.5"
         style="fill:#f8bd8c;fill-opacity:1;fill-rule:nonzero;stroke:none"
         id="path166" /><path
         d="m 20106.7,3824.4 c 0,0 708.2,379.1 885.3,-35.2 177,-414.2 40.8,-1204.1 -885.3,-1490.1 -926.1,-286 -381.3,326.8 -381.3,326.8 l 381.3,1198.5"
         style="fill:#f8bd8c;fill-opacity:1;fill-rule:nonzero;stroke:none"
         id="path168" /><path
         d="m 18105.5,7671.8 -46.3,-928 H 19262 l -100.3,989.2 -1056.2,-61.2"
         style="fill:#f8bd8c;fill-opacity:1;fill-rule:nonzero;stroke:none"
         id="path170" /><path
         d="m 17513.6,8384 c 0,-210.6 -170.7,-381.3 -381.3,-381.3 -210.6,0 -381.3,170.7 -381.3,381.3 0,210.5 170.7,381.3 381.3,381.3 210.6,0 381.3,-170.8 381.3,-381.3"
         style="fill:#f8bd8c;fill-opacity:1;fill-rule:nonzero;stroke:none"
         id="path172" /><path
         d="m 20363.8,8387 c 0,-212.3 -172.1,-384.3 -384.4,-384.3 -212.2,0 -384.3,172 -384.3,384.3 0,212.2 172.1,384.3 384.3,384.3 212.3,0 384.4,-172.1 384.4,-384.3"
         style="fill:#f8bd8c;fill-opacity:1;fill-rule:nonzero;stroke:none"
         id="path174" /><path
         d="m 17850.3,6749.3 c 0,0 -1089.5,-1802.8 -1150.8,-2267.1 -61.3,-464.3 267.9,-1078.5 450.6,-1477.7 182.7,-399.2 373.4,-84.9 393.8,0 20.4,84.8 306.4,3744.8 306.4,3744.8"
         style="fill:#7d7db7;fill-opacity:1;fill-rule:nonzero;stroke:none"
         id="path176" /><path
         d="m 19470.9,6749.3 c 0,0 1231.7,-1824.4 1330.2,-2310.9 98.5,-486.5 -180.2,-1161.3 -330.2,-1597.4 -150,-436.2 -365.4,-118.2 -392.6,-30 -27.2,88.2 -607.4,3938.3 -607.4,3938.3"
         style="fill:#7d7db7;fill-opacity:1;fill-rule:nonzero;stroke:none"
         id="path178" /><path
         d="m 17019.6,3686.6 c 0,0 -382.2,-509.3 -388.2,-790.1 -15.4,-728.6 1004.9,-902 1453.6,-993 545.8,-110.6 1114.7,-110.2 1659.3,6.9 434.9,93.6 836.5,344.6 1008,814.4 234.9,643.5 -388.5,1103.2 -388.5,1103.2 l -3344.2,-141.4"
         style="fill:#7b7baf;fill-opacity:1;fill-rule:nonzero;stroke:none"
         id="path180" /><path
         d="m 19471,6749.3 c 0,0 735.4,-2319.3 885.2,-2869.4 149.9,-550.1 -1974.7,-1799 -3336.6,-193.3 l 830.7,3062.7 H 19471"
         style="fill:#9794d3;fill-opacity:1;fill-rule:nonzero;stroke:none"
         id="path182" /><path
         d="m 19405.5,6616 h -1524.7 c -58.8,0 -106.4,47.6 -106.4,106.3 v 221.8 c 0,58.7 47.6,106.3 106.4,106.3 h 1524.7 c 58.8,0 106.4,-47.6 106.4,-106.3 v -221.8 c 0,-58.7 -47.6,-106.3 -106.4,-106.3"
         style="fill:#9794d3;fill-opacity:1;fill-rule:nonzero;stroke:none"
         id="path184" /><path
         d="m 18633.6,6871.5 c 333.1,122.8 553.2,372.7 800.1,600.6 260.9,240.8 548.4,447 712,763.4 146.8,284.1 174.6,609 165.1,924.2 -11,362 -71,731.5 -257.8,1049 -124.7,212.1 -283,404.6 -480.7,562 -175,139.2 -370.7,253.5 -567.2,364.2 -189.1,106.5 -358.5,242.8 -572.1,309.1 12.7,-3.9 -39.6,-191.4 -44,-211.9 -19.7,-91.5 -31.6,-191.1 -98,-265.6 -82.6,-92.8 -222.1,-115.8 -347.2,-146.1 -566.2,-136.9 -995.4,-551.5 -1103.4,-1090.2 -81.7,-407.3 -46.1,-866.1 74.6,-1263.9 172.8,-569.7 623.3,-922.9 1193,-1148.5 197.5,-78.2 481.5,-163.8 405,-426.9 -4,-13.5 -8.9,-28.6 5.8,-40 10.2,-7.9 24.6,-9.3 37.2,-5.5 26.2,8 52.1,16.7 77.6,26.1"
         style="fill:#3d3c3b;fill-opacity:1;fill-rule:nonzero;stroke:none"
         id="path186" /><path
         d="m 12450.4,3752.8 c 0,0 -810.8,439.5 -962.6,84.4 -151.8,-355 -35,-1032.1 758.8,-1277.2 793.8,-245.2 326.8,280.1 326.8,280.1 l -123,912.7"
         style="fill:#f8bd8c;fill-opacity:1;fill-rule:nonzero;stroke:none"
         id="path188" /><path
         d="m 15098.1,3554.6 c 0,0 810.9,439.6 962.6,84.5 151.8,-355.1 35.1,-1032.2 -758.7,-1277.3 -793.8,-245.2 -326.9,280.2 -326.9,280.2 l 123,912.6"
         style="fill:#f8bd8c;fill-opacity:1;fill-rule:nonzero;stroke:none"
         id="path190" /><path
         d="m 14274.9,6114.1 c 0,0 850.3,-742.6 959.8,-1529.1 109.4,-786.6 -152.4,-1132 -152.4,-1132 l -807.4,2661.1"
         style="fill:#f8bd8c;fill-opacity:1;fill-rule:nonzero;stroke:none"
         id="path192" /><path
         d="m 13203.1,6164.1 c 0,0 -850.3,-742.6 -959.7,-1529.1 -109.5,-786.6 152.4,-1132 152.4,-1132 l 807.3,2661.1"
         style="fill:#f8bd8c;fill-opacity:1;fill-rule:nonzero;stroke:none"
         id="path194" /><path
         d="m 12709.9,7166.7 c 0,-195.4 -158.4,-353.8 -353.8,-353.8 -195.4,0 -353.7,158.4 -353.7,353.8 0,195.4 158.3,353.7 353.7,353.7 195.4,0 353.8,-158.3 353.8,-353.7"
         style="fill:#f8bd8c;fill-opacity:1;fill-rule:nonzero;stroke:none"
         id="path196" /><path
         d="m 15408.9,7166.7 c 0,-195.4 -158.3,-353.8 -353.7,-353.8 -195.4,0 -353.8,158.4 -353.8,353.8 0,195.4 158.4,353.7 353.8,353.7 195.4,0 353.7,-158.3 353.7,-353.7"
         style="fill:#f8bd8c;fill-opacity:1;fill-rule:nonzero;stroke:none"
         id="path198" /><path
         d="m 14368.8,6041.7 h 1 c 47.4,0.2 531.4,-1646.6 599.2,-1811.2 122.1,-296.5 259.8,-586.1 420.5,-860.6 88.3,-151 467,-542.9 351.8,-738.5 -48.9,-83 -132.6,-133.4 -214.6,-176.1 -380.9,-198.2 -799.3,-301.2 -1220.3,-327.7 -436.5,-27.5 -850,44.9 -1277,128.7 -367.1,71.9 -745.6,219.2 -1072.9,411.7 -91.5,53.8 -467.2,274 -372.6,408 63.4,89.8 135.6,173.5 202.2,260.6 268.1,350.7 526.1,713.1 737.4,1107.3 128.6,239.9 239.4,491.3 322.4,753.7 21.5,68 243.4,916.4 211.8,916.4 455,1.4 856.1,-73.7 1311.1,-72.3"
         style="fill:#fe6e8d;fill-opacity:1;fill-rule:nonzero;stroke:none"
         id="path200" /><path
         d="m 13219,9455.6 c -459.6,-163.2 -858.2,-512.7 -1011.6,-950.6 -200.5,-572.4 -190.9,-1128.8 93,-1669.3 208.6,-396.9 573,-693.7 965.9,-897 764.6,-395.6 1438.8,168.2 1794,831.6 196.7,367.2 241.9,726.8 259.7,1131.3 31.9,728.6 -473.5,1461.2 -1239.2,1623.5 -282.3,59.8 -583.2,29.4 -861.8,-69.5"
         style="fill:#3d3c3b;fill-opacity:1;fill-rule:nonzero;stroke:none"
         id="path202" /><path
         d="m 14141.8,5844.1 c 0,-222.4 -180.3,-402.7 -402.8,-402.7 -222.4,0 -402.7,180.3 -402.7,402.7 0,222.4 180.3,402.7 402.7,402.7 222.5,0 402.8,-180.3 402.8,-402.7"
         style="fill:#3d3c3b;fill-opacity:1;fill-rule:nonzero;stroke:none"
         id="path204" /><path
         d="m 14113.6,5301.3 c 0,-206.9 -167.7,-374.6 -374.6,-374.6 -206.9,0 -374.6,167.7 -374.6,374.6 0,206.9 167.7,374.6 374.6,374.6 206.9,0 374.6,-167.7 374.6,-374.6"
         style="fill:#3d3c3b;fill-opacity:1;fill-rule:nonzero;stroke:none"
         id="path206" /><path
         d="m 14081.1,4833.5 c 0,-188.9 -153.1,-342.1 -342.1,-342.1 -188.9,0 -342.1,153.2 -342.1,342.1 0,189 153.2,342.1 342.1,342.1 189,0 342.1,-153.1 342.1,-342.1"
         style="fill:#3d3c3b;fill-opacity:1;fill-rule:nonzero;stroke:none"
         id="path208" /><path
         d="m 13872.7,4646.1 c 17.7,-3.1 33.7,-10.6 45.5,-26 34.7,-45.5 43.3,-133.4 51.1,-188.8 13.7,-97.8 8.3,-198.6 -20.1,-293.4 -33.4,-111.2 -99.5,-213.4 -189.4,-286.3 -20.9,-16.9 -51.6,-2.2 -52.2,24.7 -1.4,54.3 -34.1,98.8 -81.7,140.5 -32.7,28.7 -60,62 -80.5,98.9 -20.3,36.7 -33.9,76.9 -39.4,119.9 -11.5,89.8 -0.7,196.8 32,281.6 12.3,31.9 44.7,104.9 87.4,109 50.6,4.9 101.3,9.8 151.9,14.7 28.5,2.8 64.6,10.7 95.4,5.2"
         style="fill:#3d3c3b;fill-opacity:1;fill-rule:nonzero;stroke:none"
         id="path210" /><path
         d="m 13762.6,4465.4 c -127.4,0 -229.7,85.2 -231.2,86.5 -6.3,5.4 -7.1,14.8 -1.7,21.1 5.4,6.4 14.8,7.1 21.1,1.8 8.6,-7.3 212.3,-176.4 393.8,-0.7 5.9,5.8 15.4,5.6 21.2,-0.3 5.7,-6 5.6,-15.5 -0.4,-21.3 -67.5,-65.3 -138.4,-87.1 -202.8,-87.1"
         style="fill:#dd5b8a;fill-opacity:1;fill-rule:nonzero;stroke:none"
         id="path212" /><path
         d="m 10561.9,3855.4 -6.8,7.3 c 11.7,10.9 23.5,21.9 35.2,33.3 l 7,-7.2 c -11.8,-11.4 -23.7,-22.5 -35.4,-33.4"
         style="fill:#545ea9;fill-opacity:1;fill-rule:nonzero;stroke:none"
         id="path214" /><path
         d="m 7630.64,3892.4 c 0,0 -548.34,293.5 -685.42,-27.2 -137.09,-320.8 -31.64,-932.4 685.42,-1153.8 717.06,-221.5 295.26,253.1 295.26,253.1 l -295.26,927.9"
         style="fill:#f8bd8c;fill-opacity:1;fill-rule:nonzero;stroke:none"
         id="path216" /><path
         d="m 10488.3,3892.4 c 0,0 548.4,293.5 685.4,-27.2 137.1,-320.8 31.7,-932.4 -685.4,-1153.8 -717.04,-221.5 -295.2,253.1 -295.2,253.1 l 295.2,927.9"
         style="fill:#f8bd8c;fill-opacity:1;fill-rule:nonzero;stroke:none"
         id="path218" /><path
         d="m 8349.03,5697.7 c 0,0 -813.29,-733.7 -813.29,-1417.1 0,-683.5 337.43,-946.8 337.43,-946.8 l 475.86,2363.9"
         style="fill:#f8bd8c;fill-opacity:1;fill-rule:nonzero;stroke:none"
         id="path220" /><path
         d="m 9465,5859.9 c 0,0 988.7,-646.5 1088.4,-1362.9 99.7,-716.5 -227.7,-1043.5 -227.7,-1043.5 L 9465,5859.9"
         style="fill:#f8bd8c;fill-opacity:1;fill-rule:nonzero;stroke:none"
         id="path222" /><path
         d="M 10558.5,3859 C 9429.13,2805.9 8149.19,3363.6 7509.38,3757.3 c 25.3,126.6 73.54,249 152.95,356.6 326.79,442.8 527.19,1403.7 717,1625.2 189.81,221.4 400.66,199 949.04,199 9.51,0 24.17,-10.3 32.29,-14.3 30.21,-14.8 59.08,-32.5 86.83,-51.5 104.21,-71.5 193.24,-164.3 268.67,-265.3 192.42,-257.5 307.44,-560 433.84,-852.7 130.7,-302.5 309.9,-579.5 408.5,-895.3"
         style="fill:#545ea9;fill-opacity:1;fill-rule:nonzero;stroke:none"
         id="path224" /><path
         d="m 9054.26,2321.3 c -854.14,42 -1202.12,274.1 -1360.3,463.9 -119.73,143.8 -263.67,577.6 -184.58,972.1 639.81,-393.7 1919.75,-951.4 3049.12,101.7 47.9,-152.9 81.1,-316.1 87.9,-483.3 31.7,-769.7 -738,-1096.7 -1592.14,-1054.4"
         style="fill:#3d3d6b;fill-opacity:1;fill-rule:nonzero;stroke:none"
         id="path226" /><path
         d="m 8445.62,5808 c 0,0 -362.71,-226.8 -557.93,-457.8 -195.23,-231 45.47,-254.7 165.94,-400.1 120.48,-145.5 477.51,820.5 477.51,820.5 l -85.52,37.4"
         style="fill:#545ea9;fill-opacity:1;fill-rule:nonzero;stroke:none"
         id="path228" /><path
         d="m 9466.83,5859.9 c 0,0 404.26,-162.7 640.67,-359.1 236.4,-196.4 -1.7,-262.2 -97.9,-428.6 -96.09,-166.4 -622.39,735.3 -622.39,735.3 l 79.62,52.4"
         style="fill:#545ea9;fill-opacity:1;fill-rule:nonzero;stroke:none"
         id="path230" /><path
         d="m 8563.48,6417.9 -36.06,-479.2 H 9465 l -78.13,510.9 -823.39,-31.7"
         style="fill:#f8bd8c;fill-opacity:1;fill-rule:nonzero;stroke:none"
         id="path232" /><path
         d="m 9442.87,5801 h -901.36 c -48.07,0 -87.05,39 -87.05,87.1 v 101.3 c 0,48 38.98,87 87.05,87 h 901.36 c 48.07,0 87.05,-39 87.05,-87 v -101.3 c 0,-48.1 -38.98,-87.1 -87.05,-87.1"
         style="fill:#545ea9;fill-opacity:1;fill-rule:nonzero;stroke:none"
         id="path234" /><path
         d="m 8031.35,7319.5 c 0,-168.9 -136.92,-305.8 -305.8,-305.8 -168.89,0 -305.81,136.9 -305.81,305.8 0,168.9 136.92,305.8 305.81,305.8 168.88,0 305.8,-136.9 305.8,-305.8"
         style="fill:#f8bd8c;fill-opacity:1;fill-rule:nonzero;stroke:none"
         id="path236" /><path
         d="m 10630.3,7319.5 c 0,-168.9 -137,-305.8 -305.8,-305.8 -168.9,0 -305.8,136.9 -305.8,305.8 0,168.9 136.9,305.8 305.8,305.8 168.8,0 305.8,-136.9 305.8,-305.8"
         style="fill:#f8bd8c;fill-opacity:1;fill-rule:nonzero;stroke:none"
         id="path238" /><path
         d="m 10315.9,8811.7 c -6.6,19.4 -3.8,40.2 7.2,57.3 125.1,194.2 149.3,492.3 109.7,718.4 -8.8,50.1 -32.9,99.2 -66.2,139.1 -31.4,37.6 -87.9,23.4 -102.3,-24.2 -26.4,-87.6 -97.7,-147.2 -184.2,-181.3 -37.8,-14.9 -77.1,11.4 -82.01,53.3 -13.59,115.1 -132.53,183.6 -209.55,216.3 -28.44,12.1 -61.75,-0.5 -74.76,-29.5 -113.2,-252.3 -1213.79,-202.1 -1335.37,-195.8 -7.28,0.4 -14.57,-0.5 -21.53,-2.8 -267.24,-86.2 -472.71,-269.9 -619.62,-533.8 -0.81,-1.4 -1.63,-2.9 -2.44,-4.3 -26.78,-47.9 -95.74,-37.5 -109.49,16 -4.8,18.7 -7.18,36.6 -7.79,53.4 -2.35,65.1 -83.58,87 -112.76,29.4 -32.89,-64.8 -45.82,-138.5 -44.01,-210.8 0.77,-31.1 3.38,-59.4 13.66,-89 11.09,-31.8 27.94,-63 25.82,-97.8 -2.06,-34 -21.64,-62.5 -35.12,-92.7 -14.47,-32.3 -17.62,-65.4 -21.2,-100.4 -7.92,-77.4 1.17,-155.3 4.6,-232.7 10.64,-240.1 17.32,-433.6 72.32,-674.5 69.08,-302.5 184.55,-608.2 358.8,-861.2 84.45,-122.6 193.37,-230.1 317.83,-311.9 279.04,-183.6 637.99,-218.2 959.45,-179.2 238.72,29 477.69,100.6 677.85,236.9 66.87,45.6 128.91,98.2 183.92,157.6 245.3,265.3 438.6,648.4 457.9,999.5 20.2,367.1 -41.7,791.1 -160.7,1144.7"
         style="fill:#3d3c3b;fill-opacity:1;fill-rule:nonzero;stroke:none"
         id="path240" /></g></g></svg>
